<svg width="460" height="460" viewBox="0 0 460 460" fill="none" xmlns="http://www.w3.org/2000/svg">
<rect width="460" height="460" fill="white"/>
<rect x="345" y="45" width="70" height="70" rx="2" fill="#FFE40F"/>
<rect x="245" y="145" width="70" height="70" rx="2" fill="#FFE40F"/>
<rect x="345" y="245" width="70" height="70" rx="2" fill="#FFE40F"/>
<rect x="345" y="345" width="70" height="70" rx="2" fill="#FFE40F"/>
<rect x="245" y="45" width="70" height="70" rx="2" fill="#FFE40F"/>
<rect x="245" y="345" width="70" height="70" rx="2" fill="#FFE40F"/>
<rect x="145" y="145" width="70" height="70" rx="2" fill="#2762BA"/>
<rect x="145" y="245" width="70" height="70" rx="2" fill="#2762BA"/>
<rect x="145" y="345" width="70" height="70" rx="2" fill="#2762BA"/>
<rect x="145" y="45" width="70" height="70" rx="2" fill="#2762BA"/>
<rect x="45" y="345" width="70" height="70" rx="2" fill="#2762BA"/>
<path d="M106 309.592C106 310.504 105.808 311.176 105.424 311.608C104.992 311.992 104.32 312.184 103.408 312.184L94.84 312.184C93.928 312.184 93.28 311.992 92.896 311.608C92.464 311.176 92.248 310.504 92.248 309.592L92.248 302.464L68.056 302.464L68.056 309.592C68.056 310.504 67.864 311.176 67.48 311.608C67.048 311.992 66.376 312.184 65.464 312.184L56.752 312.184C55.84 312.184 55.192 311.992 54.808 311.608C54.376 311.176 54.16 310.504 54.16 309.592L54.16 278.92C54.16 278.008 54.376 277.36 54.808 276.976C55.192 276.544 55.84 276.328 56.752 276.328L65.464 276.328C66.376 276.328 67.048 276.544 67.48 276.976C67.864 277.36 68.056 278.008 68.056 278.92L68.056 285.904L92.248 285.904L92.248 278.92C92.248 278.008 92.464 277.36 92.896 276.976C93.28 276.544 93.928 276.328 94.84 276.328L103.408 276.328C104.32 276.328 104.992 276.544 105.424 276.976C105.808 277.36 106 278.008 106 278.92L106 309.592ZM106 249.798L106 260.526C106 261.438 105.808 262.11 105.424 262.542C104.992 262.926 104.32 263.118 103.408 263.118L56.752 263.118C55.84 263.118 55.192 262.926 54.808 262.542C54.376 262.11 54.16 261.438 54.16 260.526L54.16 248.934C54.16 248.166 54.328 247.542 54.664 247.062C55 246.534 55.552 246.054 56.32 245.622L68.056 239.142C68.488 238.902 68.8 238.71 68.992 238.566C69.184 238.374 69.28 238.134 69.28 237.846L69.28 237.198C69.28 236.91 69.184 236.694 68.992 236.55C68.8 236.358 68.488 236.142 68.056 235.902L56.32 229.494C55.552 229.062 55 228.606 54.664 228.126C54.328 227.598 54.16 226.95 54.16 226.182L54.16 214.518C54.16 213.606 54.376 212.958 54.808 212.574C55.192 212.142 55.84 211.926 56.752 211.926L103.408 211.926C104.32 211.926 104.992 212.142 105.424 212.574C105.808 212.958 106 213.606 106 214.518L106 225.606C106 226.518 105.808 227.19 105.424 227.622C104.992 228.006 104.32 228.198 103.408 228.198L78.064 228.198L85.912 232.446C86.728 232.878 87.328 233.406 87.712 234.03C88.048 234.606 88.216 235.35 88.216 236.262L88.216 239.142C88.216 240.054 88.048 240.822 87.712 241.446C87.328 242.022 86.728 242.526 85.912 242.958L78.064 247.206L103.408 247.206C104.32 247.206 104.992 247.422 105.424 247.854C105.808 248.238 106 248.886 106 249.798ZM69.28 178.905L80.224 182.289L80.224 170.985L69.28 174.369C68.848 174.561 68.536 174.777 68.344 175.017C68.152 175.209 68.056 175.449 68.056 175.737L68.056 177.537C68.056 177.825 68.152 178.089 68.344 178.329C68.536 178.521 68.848 178.713 69.28 178.905ZM103.408 183.009C104.32 183.009 104.992 183.225 105.424 183.657C105.808 184.041 106 184.689 106 185.601L106 196.185C106 197.097 105.808 197.769 105.424 198.201C104.992 198.585 104.32 198.777 103.408 198.777L84.4 198.777C82.96 198.777 81.304 198.561 79.432 198.129C77.56 197.649 75.376 196.929 72.88 195.969L56.536 189.705C55.72 189.417 55.12 188.985 54.736 188.409C54.352 187.785 54.16 186.993 54.16 186.033L54.16 166.665C54.16 165.753 54.352 165.009 54.736 164.433C55.12 163.809 55.72 163.353 56.536 163.065L72.88 156.801C75.376 155.841 77.56 155.145 79.432 154.713C81.304 154.233 82.96 153.993 84.4 153.993L103.408 153.993C104.32 153.993 104.992 154.209 105.424 154.641C105.808 155.025 106 155.673 106 156.585L106 167.457C106 168.417 105.808 169.137 105.424 169.617C104.992 170.049 104.32 170.265 103.408 170.265L93.328 170.265L93.328 183.009L103.408 183.009ZM106 101.183L106 123.863C106 129.863 104.8 134.327 102.4 137.255C100 140.135 96.304 141.575 91.312 141.575L68.848 141.575C63.856 141.575 60.16 140.135 57.76 137.255C55.36 134.327 54.16 129.863 54.16 123.863L54.16 105.863C54.16 104.951 54.376 104.303 54.808 103.919C55.192 103.487 55.84 103.271 56.752 103.271L65.464 103.271C66.376 103.271 67.048 103.487 67.48 103.919C67.864 104.303 68.056 104.951 68.056 105.863L68.056 120.839C68.056 122.327 68.368 123.431 68.992 124.151C69.568 124.871 70.456 125.231 71.656 125.231L88.864 125.231C90.064 125.231 90.952 124.967 91.528 124.439C92.104 123.863 92.392 123.023 92.392 121.919L92.392 114.935L81.16 114.935C80.248 114.935 79.6 114.743 79.216 114.359C78.784 113.927 78.568 113.255 78.568 112.343L78.568 101.183C78.568 100.271 78.784 99.6229 79.216 99.2389C79.6 98.8069 80.248 98.5909 81.16 98.5909L103.408 98.5909C104.32 98.5909 104.992 98.8069 105.424 99.2389C105.808 99.6229 106 100.271 106 101.183ZM106 49.4864L106 82.8944C106 83.8064 105.808 84.4784 105.424 84.9104C104.992 85.2944 104.32 85.4864 103.408 85.4864L56.752 85.4864C55.84 85.4864 55.192 85.2944 54.808 84.9104C54.376 84.4784 54.16 83.8064 54.16 82.8944L54.16 49.4864C54.16 48.5744 54.376 47.9264 54.808 47.5424C55.192 47.1104 55.84 46.8944 56.752 46.8944L65.176 46.8944C66.088 46.8944 66.76 47.1104 67.192 47.5424C67.576 47.9264 67.768 48.5744 67.768 49.4864L67.768 69.3584L73.312 69.3584L73.312 55.3184C73.312 54.4064 73.528 53.7584 73.96 53.3744C74.344 52.9424 74.992 52.7264 75.904 52.7264L83.608 52.7264C84.52 52.7264 85.192 52.9424 85.624 53.3744C86.008 53.7584 86.2 54.4064 86.2 55.3184L86.2 69.3584L92.392 69.3584L92.392 49.4864C92.392 48.5744 92.608 47.9264 93.04 47.5424C93.424 47.1104 94.072 46.8944 94.984 46.8944L103.408 46.8944C104.32 46.8944 104.992 47.1104 105.424 47.5424C105.808 47.9264 106 48.5744 106 49.4864Z" fill="black"/>
<path d="M302.168 294.502C302.168 297.017 301.813 299.313 301.102 301.39C300.391 303.413 299.134 305.162 297.33 306.638C295.581 308.059 293.148 309.18 290.032 310C286.916 310.82 282.953 311.23 278.142 311.23C273.386 311.23 269.45 310.82 266.334 310C263.273 309.18 260.84 308.059 259.036 306.638C257.287 305.162 256.057 303.413 255.346 301.39C254.69 299.313 254.362 297.017 254.362 294.502V281.218C254.362 280.179 254.581 279.441 255.018 279.004C255.51 278.512 256.275 278.266 257.314 278.266H269.204C270.243 278.266 270.981 278.512 271.418 279.004C271.91 279.441 272.156 280.179 272.156 281.218V291.222C272.156 292.315 272.484 293.245 273.14 294.01C273.851 294.721 275.463 295.076 277.978 295.076C280.329 295.076 281.805 294.721 282.406 294.01C283.062 293.245 283.39 292.315 283.39 291.222V253.912C283.39 252.873 283.609 252.135 284.046 251.698C284.538 251.206 285.303 250.96 286.342 250.96H299.216C300.255 250.96 300.993 251.206 301.43 251.698C301.922 252.135 302.168 252.873 302.168 253.912V294.502Z" fill="black"/>
<path d="M386.046 210H360.134C359.095 210 358.33 209.781 357.838 209.344C357.401 208.852 357.182 208.087 357.182 207.048V197.454C357.182 196.415 357.401 195.677 357.838 195.24C358.33 194.748 359.095 194.502 360.134 194.502H382.192C382.903 194.502 383.422 194.283 383.75 193.846C384.133 193.354 384.324 192.78 384.324 192.124C384.324 191.195 384.133 190.511 383.75 190.074C383.422 189.637 382.903 189.391 382.192 189.336L369.892 187.614C366.065 187.067 362.977 185.81 360.626 183.842C358.33 181.874 357.182 178.594 357.182 174.002V165.392C357.182 160.745 358.685 157.192 361.692 154.732C364.699 152.217 368.853 150.96 374.156 150.96H397.116C398.155 150.96 398.893 151.206 399.33 151.698C399.822 152.135 400.068 152.873 400.068 153.912V163.67C400.068 164.709 399.822 165.474 399.33 165.966C398.893 166.403 398.155 166.622 397.116 166.622H378.01C377.299 166.622 376.753 166.868 376.37 167.36C375.987 167.797 375.796 168.371 375.796 169.082C375.796 169.793 375.987 170.394 376.37 170.886C376.753 171.378 377.299 171.651 378.01 171.706L390.228 173.346C394.055 173.893 397.143 175.15 399.494 177.118C401.845 179.086 403.02 182.366 403.02 186.958V195.568C403.02 200.215 401.489 203.795 398.428 206.31C395.421 208.77 391.294 210 386.046 210Z" fill="black"/>
</svg>
