<svg width="420" height="420" viewBox="0 0 420 420" fill="none" xmlns="http://www.w3.org/2000/svg">
<rect width="420" height="420" fill="white"/>
<rect x="320" y="20" width="80" height="80" rx="2" fill="#FFE40F"/>
<rect x="220" y="120" width="80" height="80" rx="2" fill="#FFE40F"/>
<rect x="320" y="220" width="80" height="80" rx="2" fill="#FFE40F"/>
<rect x="320" y="320" width="80" height="80" rx="2" fill="#FFE40F"/>
<rect x="220" y="20" width="80" height="80" rx="2" fill="#FFE40F"/>
<rect x="220" y="320" width="80" height="80" rx="2" fill="#FFE40F"/>
<rect x="120" y="120" width="80" height="80" rx="2" fill="#2762BA"/>
<rect x="120" y="220" width="80" height="80" rx="2" fill="#2762BA"/>
<rect x="120" y="320" width="80" height="80" rx="2" fill="#2762BA"/>
<rect x="120" y="20" width="80" height="80" rx="2" fill="#2762BA"/>
<rect x="20" y="320" width="80" height="80" rx="2" fill="#2762BA"/>
<path d="M285.904 276.856C285.904 279.8 285.488 282.488 284.656 284.92C283.824 287.288 282.352 289.336 280.24 291.064C278.192 292.728 275.344 294.04 271.696 295C268.048 295.96 263.408 296.44 257.776 296.44C252.208 296.44 247.6 295.96 243.952 295C240.368 294.04 237.52 292.728 235.408 291.064C233.36 289.336 231.92 287.288 231.088 284.92C230.32 282.488 229.936 279.8 229.936 276.856V261.304C229.936 260.088 230.192 259.224 230.704 258.712C231.28 258.136 232.176 257.848 233.392 257.848H247.312C248.528 257.848 249.392 258.136 249.904 258.712C250.48 259.224 250.768 260.088 250.768 261.304V273.016C250.768 274.296 251.152 275.384 251.92 276.28C252.752 277.112 254.64 277.528 257.584 277.528C260.336 277.528 262.064 277.112 262.768 276.28C263.536 275.384 263.92 274.296 263.92 273.016V229.336C263.92 228.12 264.176 227.256 264.688 226.744C265.264 226.168 266.16 225.88 267.376 225.88H282.448C283.664 225.88 284.528 226.168 285.04 226.744C285.616 227.256 285.904 228.12 285.904 229.336V276.856Z" fill="black"/>
<path d="M366.688 195H336.352C335.136 195 334.24 194.744 333.664 194.232C333.152 193.656 332.896 192.76 332.896 191.544V180.312C332.896 179.096 333.152 178.232 333.664 177.72C334.24 177.144 335.136 176.856 336.352 176.856H362.176C363.008 176.856 363.616 176.6 364 176.088C364.448 175.512 364.672 174.84 364.672 174.072C364.672 172.984 364.448 172.184 364 171.672C363.616 171.16 363.008 170.872 362.176 170.808L347.776 168.792C343.296 168.152 339.68 166.68 336.928 164.376C334.24 162.072 332.896 158.232 332.896 152.856V142.776C332.896 137.336 334.656 133.176 338.176 130.296C341.696 127.352 346.56 125.88 352.768 125.88H379.648C380.864 125.88 381.728 126.168 382.24 126.744C382.816 127.256 383.104 128.12 383.104 129.336V140.76C383.104 141.976 382.816 142.872 382.24 143.448C381.728 143.96 380.864 144.216 379.648 144.216H357.28C356.448 144.216 355.808 144.504 355.36 145.08C354.912 145.592 354.688 146.264 354.688 147.096C354.688 147.928 354.912 148.632 355.36 149.208C355.808 149.784 356.448 150.104 357.28 150.168L371.584 152.088C376.064 152.728 379.68 154.2 382.432 156.504C385.184 158.808 386.56 162.648 386.56 168.024V178.104C386.56 183.544 384.768 187.736 381.184 190.68C377.664 193.56 372.832 195 366.688 195Z" fill="black"/>
<path d="M38.544 95C37.328 95 36.432 94.744 35.856 94.232C35.344 93.656 35.088 92.76 35.088 91.544V80.12C35.088 78.904 35.344 78.04 35.856 77.528C36.432 76.952 37.328 76.664 38.544 76.664H48.048L48.048 44.408H38.544C37.328 44.408 36.432 44.152 35.856 43.64C35.344 43.064 35.088 42.168 35.088 40.952V29.336C35.088 28.12 35.344 27.256 35.856 26.744C36.432 26.168 37.328 25.88 38.544 25.88L79.44 25.88C80.656 25.88 81.52 26.168 82.032 26.744C82.608 27.256 82.896 28.12 82.896 29.336V40.952C82.896 42.168 82.608 43.064 82.032 43.64C81.52 44.152 80.656 44.408 79.44 44.408H70.128L70.128 76.664L79.44 76.664C80.656 76.664 81.52 76.952 82.032 77.528C82.608 78.04 82.896 78.904 82.896 80.12V91.544C82.896 92.76 82.608 93.656 82.032 94.232C81.52 94.744 80.656 95 79.44 95L38.544 95Z" fill="black"/>
<path d="M43.384 195H29.08C27.864 195 26.968 194.744 26.392 194.232C25.88 193.656 25.624 192.76 25.624 191.544L25.624 129.336C25.624 128.12 25.88 127.256 26.392 126.744C26.968 126.168 27.864 125.88 29.08 125.88H44.536C45.56 125.88 46.392 126.104 47.032 126.552C47.736 127 48.376 127.736 48.952 128.76L57.592 144.408C57.912 144.984 58.168 145.4 58.36 145.656C58.616 145.912 58.936 146.04 59.32 146.04H60.184C60.568 146.04 60.856 145.912 61.048 145.656C61.304 145.4 61.592 144.984 61.912 144.408L70.456 128.76C71.032 127.736 71.64 127 72.28 126.552C72.984 126.104 73.848 125.88 74.872 125.88H90.424C91.64 125.88 92.504 126.168 93.016 126.744C93.592 127.256 93.88 128.12 93.88 129.336L93.88 191.544C93.88 192.76 93.592 193.656 93.016 194.232C92.504 194.744 91.64 195 90.424 195H75.64C74.424 195 73.528 194.744 72.952 194.232C72.44 193.656 72.184 192.76 72.184 191.544L72.184 157.752L66.52 168.216C65.944 169.304 65.24 170.104 64.408 170.616C63.64 171.064 62.648 171.288 61.432 171.288H57.592C56.376 171.288 55.352 171.064 54.52 170.616C53.752 170.104 53.08 169.304 52.504 168.216L46.84 157.752L46.84 191.544C46.84 192.76 46.552 193.656 45.976 194.232C45.464 194.744 44.6 195 43.384 195Z" fill="black"/>
<path d="M85.424 295H55.184C47.184 295 41.232 293.4 37.328 290.2C33.488 287 31.568 282.072 31.568 275.416L31.568 245.464C31.568 238.808 33.488 233.88 37.328 230.68C41.232 227.48 47.184 225.88 55.184 225.88H79.184C80.4 225.88 81.264 226.168 81.776 226.744C82.352 227.256 82.64 228.12 82.64 229.336V240.952C82.64 242.168 82.352 243.064 81.776 243.64C81.264 244.152 80.4 244.408 79.184 244.408H59.216C57.232 244.408 55.76 244.824 54.8 245.656C53.84 246.424 53.36 247.608 53.36 249.208L53.36 272.152C53.36 273.752 53.712 274.936 54.416 275.704C55.184 276.472 56.304 276.856 57.776 276.856H67.088L67.088 261.88C67.088 260.664 67.344 259.8 67.856 259.288C68.432 258.712 69.328 258.424 70.544 258.424H85.424C86.64 258.424 87.504 258.712 88.016 259.288C88.592 259.8 88.88 260.664 88.88 261.88L88.88 291.544C88.88 292.76 88.592 293.656 88.016 294.232C87.504 294.744 86.64 295 85.424 295Z" fill="black"/>
</svg>
