<?xml version="1.0" encoding="UTF-8" standalone="no"?>
<!-- Created with Inkscape (http://www.inkscape.org/) -->

<svg
   width="1200"
   height="630"
   viewBox="0 0 317.5 166.68751"
   version="1.1"
   id="svg5"
   xml:space="preserve"
   inkscape:version="1.2.1 (9c6d41e, 2022-07-14)"
   sodipodi:docname="social-card-new.svg"
   xmlns:inkscape="http://www.inkscape.org/namespaces/inkscape"
   xmlns:sodipodi="http://sodipodi.sourceforge.net/DTD/sodipodi-0.dtd"
   xmlns:xlink="http://www.w3.org/1999/xlink"
   xmlns="http://www.w3.org/2000/svg"
   xmlns:svg="http://www.w3.org/2000/svg"><sodipodi:namedview
     id="namedview7"
     pagecolor="#ffffff"
     bordercolor="#000000"
     borderopacity="0.25"
     inkscape:showpageshadow="2"
     inkscape:pageopacity="0.0"
     inkscape:pagecheckerboard="0"
     inkscape:deskcolor="#d1d1d1"
     inkscape:document-units="mm"
     showgrid="false"
     inkscape:zoom="0.34484845"
     inkscape:cx="678.55894"
     inkscape:cy="439.32341"
     inkscape:window-width="1819"
     inkscape:window-height="809"
     inkscape:window-x="1576"
     inkscape:window-y="163"
     inkscape:window-maximized="0"
     inkscape:current-layer="layer2" /><defs
     id="defs2"><linearGradient
       inkscape:collect="always"
       id="linearGradient36375"><stop
         style="stop-color:#4487fe;stop-opacity:1;"
         offset="0"
         id="stop36371" /><stop
         style="stop-color:#ffffff;stop-opacity:1;"
         offset="1"
         id="stop36373" /></linearGradient><rect
       x="938.58691"
       y="494.6925"
       width="559.56415"
       height="100.5224"
       id="rect10405" /><linearGradient
       inkscape:collect="always"
       id="linearGradient5659"><stop
         style="stop-color:#0729c0;stop-opacity:0.90867579;"
         offset="0.44694996"
         id="stop5655" /><stop
         style="stop-color:#ffe40f;stop-opacity:0.69585252;"
         offset="1"
         id="stop5657" /></linearGradient><linearGradient
       inkscape:collect="always"
       xlink:href="#linearGradient5659"
       id="linearGradient5661"
       x1="9.7186451"
       y1="7.7177477"
       x2="277.00061"
       y2="183.20148"
       gradientUnits="userSpaceOnUse" /><meshgradient
       inkscape:collect="always"
       id="meshgradient32075"
       gradientUnits="userSpaceOnUse"
       x="-4.389585"
       y="-4.389585"
       gradientTransform="scale(0.99999999,0.82352941)"><meshrow
         id="meshrow32077"><meshpatch
           id="meshpatch32079"><stop
             path="c 108.76,0  217.519,0  326.279,0"
             style="stop-color:#000000;stop-opacity:1"
             id="stop32081" /><stop
             path="c 0,70.3951  0,140.79  0,211.185"
             style="stop-color:#ffffff;stop-opacity:1"
             id="stop32083" /><stop
             path="c -108.76,0  -217.519,0  -326.279,0"
             style="stop-color:#000000;stop-opacity:1"
             id="stop32085" /><stop
             path="c 0,-70.3951  0,-140.79  0,-211.185"
             style="stop-color:#ffffff;stop-opacity:1"
             id="stop32087" /></meshpatch></meshrow></meshgradient><meshgradient
       inkscape:collect="always"
       id="meshgradient35013"
       gradientUnits="userSpaceOnUse"
       x="-4.7269435e-08"
       y="9.8453867e-09"><meshrow
         id="meshrow35015"><meshpatch
           id="meshpatch35017"><stop
             path="c 105.667,0  211.333,0  316.999,0"
             style="stop-color:#000000;stop-opacity:1"
             id="stop35019" /><stop
             path="c 0,68.3931  0,136.786  0,205.179"
             style="stop-color:#ffffff;stop-opacity:1"
             id="stop35021" /><stop
             path="c -105.667,0  -211.333,0  -316.999,0"
             style="stop-color:#000000;stop-opacity:1"
             id="stop35023" /><stop
             path="c 0,-68.3931  0,-136.786  0,-205.179"
             style="stop-color:#ffffff;stop-opacity:1"
             id="stop35025" /></meshpatch></meshrow></meshgradient><linearGradient
       inkscape:collect="always"
       xlink:href="#linearGradient36375"
       id="linearGradient36377"
       x1="27.137487"
       y1="23.71287"
       x2="296.20993"
       y2="180.05705"
       gradientUnits="userSpaceOnUse"
       gradientTransform="scale(0.99999999,0.82352941)" /></defs><g
     inkscape:groupmode="layer"
     id="layer2"
     inkscape:label="Layer 2"
     style="display:inline;opacity:0.877676;fill:url(#linearGradient5661);fill-opacity:1;stroke:url(#meshgradient35013)"><rect
       style="opacity:1;fill:url(#linearGradient36377);fill-opacity:1;stroke:url(#meshgradient32075);stroke-width:0.226872;stroke-opacity:1"
       id="rect5651"
       width="317.5"
       height="166.6875"
       x="-8.8817842e-16"
       y="-1.0539717e-14" /></g><g
     inkscape:label="Layer 1"
     inkscape:groupmode="layer"
     id="layer1"
     style="display:inline"><g
       style="opacity:0.775385;fill:none"
       id="g199"
       transform="matrix(0.25508141,0,0,0.25508141,0.09885701,42.534401)"><rect
         x="345"
         y="45"
         width="70"
         height="70"
         rx="2"
         fill="#ffe40f"
         id="rect150" /><rect
         x="245"
         y="145"
         width="70"
         height="70"
         rx="2"
         fill="#ffe40f"
         id="rect152" /><rect
         x="345"
         y="245"
         width="70"
         height="70"
         rx="2"
         fill="#ffe40f"
         id="rect154" /><rect
         x="345"
         y="345"
         width="70"
         height="70"
         rx="2"
         fill="#ffe40f"
         id="rect156" /><rect
         x="245"
         y="45"
         width="70"
         height="70"
         rx="2"
         fill="#ffe40f"
         id="rect158" /><rect
         x="245"
         y="345"
         width="70"
         height="70"
         rx="2"
         fill="#ffe40f"
         id="rect160" /><rect
         x="145"
         y="145"
         width="70"
         height="70"
         rx="2"
         fill="#2762ba"
         id="rect162" /><rect
         x="145"
         y="245"
         width="70"
         height="70"
         rx="2"
         fill="#2762ba"
         id="rect164" /><rect
         x="145"
         y="345"
         width="70"
         height="70"
         rx="2"
         fill="#2762ba"
         id="rect166" /><rect
         x="145"
         y="45"
         width="70"
         height="70"
         rx="2"
         fill="#2762ba"
         id="rect168" /><rect
         x="45"
         y="345"
         width="70"
         height="70"
         rx="2"
         fill="#2762ba"
         id="rect170" /><path
         d="M 106,309.592 C 106,310.504 105.808,311.176 105.424,311.608 104.992,311.992 104.32,312.184 103.408,312.184 H 94.84 C 93.928,312.184 93.28,311.992 92.896,311.608 92.464,311.176 92.248,310.504 92.248,309.592 V 302.464 H 68.056 V 309.592 C 68.056,310.504 67.864,311.176 67.48,311.608 67.048,311.992 66.376,312.184 65.464,312.184 H 56.752 C 55.84,312.184 55.192,311.992 54.808,311.608 54.376,311.176 54.16,310.504 54.16,309.592 V 278.92 C 54.16,278.008 54.376,277.36 54.808,276.976 55.192,276.544 55.84,276.328 56.752,276.328 H 65.464 C 66.376,276.328 67.048,276.544 67.48,276.976 67.864,277.36 68.056,278.008 68.056,278.92 V 285.904 H 92.248 V 278.92 C 92.248,278.008 92.464,277.36 92.896,276.976 93.28,276.544 93.928,276.328 94.84,276.328 H 103.408 C 104.32,276.328 104.992,276.544 105.424,276.976 105.808,277.36 106,278.008 106,278.92 Z M 106,249.798 V 260.526 C 106,261.438 105.808,262.11 105.424,262.542 104.992,262.926 104.32,263.118 103.408,263.118 H 56.752 C 55.84,263.118 55.192,262.926 54.808,262.542 54.376,262.11 54.16,261.438 54.16,260.526 V 248.934 C 54.16,248.166 54.328,247.542 54.664,247.062 55,246.534 55.552,246.054 56.32,245.622 L 68.056,239.142 C 68.488,238.902 68.8,238.71 68.992,238.566 69.184,238.374 69.28,238.134 69.28,237.846 V 237.198 C 69.28,236.91 69.184,236.694 68.992,236.55 68.8,236.358 68.488,236.142 68.056,235.902 L 56.32,229.494 C 55.552,229.062 55,228.606 54.664,228.126 54.328,227.598 54.16,226.95 54.16,226.182 V 214.518 C 54.16,213.606 54.376,212.958 54.808,212.574 55.192,212.142 55.84,211.926 56.752,211.926 H 103.408 C 104.32,211.926 104.992,212.142 105.424,212.574 105.808,212.958 106,213.606 106,214.518 V 225.606 C 106,226.518 105.808,227.19 105.424,227.622 104.992,228.006 104.32,228.198 103.408,228.198 H 78.064 L 85.912,232.446 C 86.728,232.878 87.328,233.406 87.712,234.03 88.048,234.606 88.216,235.35 88.216,236.262 V 239.142 C 88.216,240.054 88.048,240.822 87.712,241.446 87.328,242.022 86.728,242.526 85.912,242.958 L 78.064,247.206 H 103.408 C 104.32,247.206 104.992,247.422 105.424,247.854 105.808,248.238 106,248.886 106,249.798 Z M 69.28,178.905 80.224,182.289 V 170.985 L 69.28,174.369 C 68.848,174.561 68.536,174.777 68.344,175.017 68.152,175.209 68.056,175.449 68.056,175.737 V 177.537 C 68.056,177.825 68.152,178.089 68.344,178.329 68.536,178.521 68.848,178.713 69.28,178.905 Z M 103.408,183.009 C 104.32,183.009 104.992,183.225 105.424,183.657 105.808,184.041 106,184.689 106,185.601 V 196.185 C 106,197.097 105.808,197.769 105.424,198.201 104.992,198.585 104.32,198.777 103.408,198.777 H 84.4 C 82.96,198.777 81.304,198.561 79.432,198.129 77.56,197.649 75.376,196.929 72.88,195.969 L 56.536,189.705 C 55.72,189.417 55.12,188.985 54.736,188.409 54.352,187.785 54.16,186.993 54.16,186.033 V 166.665 C 54.16,165.753 54.352,165.009 54.736,164.433 55.12,163.809 55.72,163.353 56.536,163.065 L 72.88,156.801 C 75.376,155.841 77.56,155.145 79.432,154.713 81.304,154.233 82.96,153.993 84.4,153.993 H 103.408 C 104.32,153.993 104.992,154.209 105.424,154.641 105.808,155.025 106,155.673 106,156.585 V 167.457 C 106,168.417 105.808,169.137 105.424,169.617 104.992,170.049 104.32,170.265 103.408,170.265 H 93.328 V 183.009 Z M 106,101.183 V 123.863 C 106,129.863 104.8,134.327 102.4,137.255 100,140.135 96.304,141.575 91.312,141.575 H 68.848 C 63.856,141.575 60.16,140.135 57.76,137.255 55.36,134.327 54.16,129.863 54.16,123.863 V 105.863 C 54.16,104.951 54.376,104.303 54.808,103.919 55.192,103.487 55.84,103.271 56.752,103.271 H 65.464 C 66.376,103.271 67.048,103.487 67.48,103.919 67.864,104.303 68.056,104.951 68.056,105.863 V 120.839 C 68.056,122.327 68.368,123.431 68.992,124.151 69.568,124.871 70.456,125.231 71.656,125.231 H 88.864 C 90.064,125.231 90.952,124.967 91.528,124.439 92.104,123.863 92.392,123.023 92.392,121.919 V 114.935 H 81.16 C 80.248,114.935 79.6,114.743 79.216,114.359 78.784,113.927 78.568,113.255 78.568,112.343 V 101.183 C 78.568,100.271 78.784,99.6229 79.216,99.2389 79.6,98.8069 80.248,98.5909 81.16,98.5909 H 103.408 C 104.32,98.5909 104.992,98.8069 105.424,99.2389 105.808,99.6229 106,100.271 106,101.183 Z M 106,49.4864 V 82.8944 C 106,83.8064 105.808,84.4784 105.424,84.9104 104.992,85.2944 104.32,85.4864 103.408,85.4864 H 56.752 C 55.84,85.4864 55.192,85.2944 54.808,84.9104 54.376,84.4784 54.16,83.8064 54.16,82.8944 V 49.4864 C 54.16,48.5744 54.376,47.9264 54.808,47.5424 55.192,47.1104 55.84,46.8944 56.752,46.8944 H 65.176 C 66.088,46.8944 66.76,47.1104 67.192,47.5424 67.576,47.9264 67.768,48.5744 67.768,49.4864 V 69.3584 H 73.312 V 55.3184 C 73.312,54.4064 73.528,53.7584 73.96,53.3744 74.344,52.9424 74.992,52.7264 75.904,52.7264 H 83.608 C 84.52,52.7264 85.192,52.9424 85.624,53.3744 86.008,53.7584 86.2,54.4064 86.2,55.3184 V 69.3584 H 92.392 V 49.4864 C 92.392,48.5744 92.608,47.9264 93.04,47.5424 93.424,47.1104 94.072,46.8944 94.984,46.8944 H 103.408 C 104.32,46.8944 104.992,47.1104 105.424,47.5424 105.808,47.9264 106,48.5744 106,49.4864 Z"
         fill="#000000"
         id="path172" /><path
         d="M 302.168,294.502 C 302.168,297.017 301.813,299.313 301.102,301.39 300.391,303.413 299.134,305.162 297.33,306.638 295.581,308.059 293.148,309.18 290.032,310 286.916,310.82 282.953,311.23 278.142,311.23 273.386,311.23 269.45,310.82 266.334,310 263.273,309.18 260.84,308.059 259.036,306.638 257.287,305.162 256.057,303.413 255.346,301.39 254.69,299.313 254.362,297.017 254.362,294.502 V 281.218 C 254.362,280.179 254.581,279.441 255.018,279.004 255.51,278.512 256.275,278.266 257.314,278.266 H 269.204 C 270.243,278.266 270.981,278.512 271.418,279.004 271.91,279.441 272.156,280.179 272.156,281.218 V 291.222 C 272.156,292.315 272.484,293.245 273.14,294.01 273.851,294.721 275.463,295.076 277.978,295.076 280.329,295.076 281.805,294.721 282.406,294.01 283.062,293.245 283.39,292.315 283.39,291.222 V 253.912 C 283.39,252.873 283.609,252.135 284.046,251.698 284.538,251.206 285.303,250.96 286.342,250.96 H 299.216 C 300.255,250.96 300.993,251.206 301.43,251.698 301.922,252.135 302.168,252.873 302.168,253.912 Z"
         fill="#000000"
         id="path174" /><path
         d="M 386.046,210 H 360.134 C 359.095,210 358.33,209.781 357.838,209.344 357.401,208.852 357.182,208.087 357.182,207.048 V 197.454 C 357.182,196.415 357.401,195.677 357.838,195.24 358.33,194.748 359.095,194.502 360.134,194.502 H 382.192 C 382.903,194.502 383.422,194.283 383.75,193.846 384.133,193.354 384.324,192.78 384.324,192.124 384.324,191.195 384.133,190.511 383.75,190.074 383.422,189.637 382.903,189.391 382.192,189.336 L 369.892,187.614 C 366.065,187.067 362.977,185.81 360.626,183.842 358.33,181.874 357.182,178.594 357.182,174.002 V 165.392 C 357.182,160.745 358.685,157.192 361.692,154.732 364.699,152.217 368.853,150.96 374.156,150.96 H 397.116 C 398.155,150.96 398.893,151.206 399.33,151.698 399.822,152.135 400.068,152.873 400.068,153.912 V 163.67 C 400.068,164.709 399.822,165.474 399.33,165.966 398.893,166.403 398.155,166.622 397.116,166.622 H 378.01 C 377.299,166.622 376.753,166.868 376.37,167.36 375.987,167.797 375.796,168.371 375.796,169.082 375.796,169.793 375.987,170.394 376.37,170.886 376.753,171.378 377.299,171.651 378.01,171.706 L 390.228,173.346 C 394.055,173.893 397.143,175.15 399.494,177.118 401.845,179.086 403.02,182.366 403.02,186.958 V 195.568 C 403.02,200.215 401.489,203.795 398.428,206.31 395.421,208.77 391.294,210 386.046,210 Z"
         fill="#000000"
         id="path176" /></g><text
       xml:space="preserve"
       style="font-size:34.3167px;font-family:Avenir;-inkscape-font-specification:Avenir;fill:#2762ba;fill-opacity:1;stroke:#2762ba;stroke-width:0.567793;stroke-opacity:1"
       x="94.683922"
       y="38.264294"
       id="text360"><tspan
         sodipodi:role="line"
         id="tspan358"
         style="font-style:normal;font-variant:normal;font-weight:bold;font-stretch:normal;font-size:34.3167px;font-family:Arial;-inkscape-font-specification:'Arial Bold';fill:#2762ba;fill-opacity:1;stroke:#2762ba;stroke-width:0.567793;stroke-opacity:1"
         x="94.683922"
         y="38.264294"><tspan
           style="font-size:34.3167px;fill:#ffffff;fill-opacity:1;stroke:none;stroke-width:0.567793;stroke-opacity:1"
           id="tspan10409">Image</tspan><tspan
           style="font-size:34.3167px;stroke:none;stroke-width:0.567793;stroke-opacity:1"
           id="tspan30293">J</tspan><tspan
           style="font-size:34.3167px;opacity:1;fill:#eed71a;fill-opacity:1;stroke:none;stroke-width:0.567793;stroke-opacity:1"
           id="tspan27751">S</tspan></tspan></text><text
       xml:space="preserve"
       style="font-size:5.07588px;font-family:Avenir;-inkscape-font-specification:Avenir;fill:#336bbd;fill-opacity:0.823529;stroke:#0000ec;stroke-width:0.163503;stroke-opacity:1"
       x="221.14742"
       y="81.01162"
       id="text364"
       transform="scale(0.97617889,1.0244024)"><tspan
         sodipodi:role="line"
         id="tspan362"
         style="font-style:normal;font-variant:normal;font-weight:bold;font-stretch:normal;font-size:12.9205px;font-family:Arial;-inkscape-font-specification:'Arial Bold';text-align:center;text-anchor:middle;fill:#17468c;fill-opacity:1;stroke:none;stroke-width:0.163503;stroke-opacity:1"
         x="221.14742"
         y="81.01162">Advanced image processing </tspan><tspan
         sodipodi:role="line"
         style="font-style:normal;font-variant:normal;font-weight:bold;font-stretch:normal;font-size:12.9205px;font-family:Arial;-inkscape-font-specification:'Arial Bold';text-align:center;text-anchor:middle;fill:#17468c;fill-opacity:1;stroke:none;stroke-width:0.163503;stroke-opacity:1"
         x="221.14742"
         y="97.162247"
         id="tspan474">and manipulation </tspan><tspan
         sodipodi:role="line"
         style="font-style:normal;font-variant:normal;font-weight:bold;font-stretch:normal;font-size:12.9205px;font-family:Arial;-inkscape-font-specification:'Arial Bold';text-align:center;text-anchor:middle;fill:#17468c;fill-opacity:1;stroke:none;stroke-width:0.163503;stroke-opacity:1"
         x="221.14742"
         y="113.31287"
         id="tspan38194">in JavaScript.</tspan><tspan
         sodipodi:role="line"
         style="fill:#336bbd;fill-opacity:0.823529;stroke:#0000ec;stroke-width:0.163503;stroke-opacity:1"
         x="221.14742"
         y="122.29063"
         id="tspan366" /><tspan
         sodipodi:role="line"
         style="fill:#336bbd;fill-opacity:0.823529;stroke:#0000ec;stroke-width:0.163503;stroke-opacity:1"
         x="221.14742"
         y="128.63548"
         id="tspan368" /></text><text
       xml:space="preserve"
       transform="scale(0.26458333)"
       id="text10403"
       style="font-style:normal;font-variant:normal;font-weight:normal;font-stretch:normal;font-size:74.6667px;font-family:Arial;-inkscape-font-specification:Arial;white-space:pre;shape-inside:url(#rect10405);display:inline;opacity:0.775385;fill:#ffe40f;fill-opacity:1;stroke:#000000;stroke-width:0.944882;stroke-opacity:1" /></g><script
     id="mesh_polyfill"
     type="text/javascript">
!function(){const t=&quot;http://www.w3.org/2000/svg&quot;,e=&quot;http://www.w3.org/1999/xlink&quot;,s=&quot;http://www.w3.org/1999/xhtml&quot;,r=2;if(document.createElementNS(t,&quot;meshgradient&quot;).x)return;const n=(t,e,s,r)=&gt;{let n=new x(.5*(e.x+s.x),.5*(e.y+s.y)),o=new x(.5*(t.x+e.x),.5*(t.y+e.y)),i=new x(.5*(s.x+r.x),.5*(s.y+r.y)),a=new x(.5*(n.x+o.x),.5*(n.y+o.y)),h=new x(.5*(n.x+i.x),.5*(n.y+i.y)),l=new x(.5*(a.x+h.x),.5*(a.y+h.y));return[[t,o,a,l],[l,h,i,r]]},o=t=&gt;{let e=t[0].distSquared(t[1]),s=t[2].distSquared(t[3]),r=.25*t[0].distSquared(t[2]),n=.25*t[1].distSquared(t[3]),o=e&gt;s?e:s,i=r&gt;n?r:n;return 18*(o&gt;i?o:i)},i=(t,e)=&gt;Math.sqrt(t.distSquared(e)),a=(t,e)=&gt;t.scale(2/3).add(e.scale(1/3)),h=t=&gt;{let e,s,r,n,o,i,a,h=new g;return t.match(/(\w+\(\s*[^)]+\))+/g).forEach(t=&gt;{let l=t.match(/[\w.-]+/g),d=l.shift();switch(d){case&quot;translate&quot;:2===l.length?e=new g(1,0,0,1,l[0],l[1]):(console.error(&quot;mesh.js: translate does not have 2 arguments!&quot;),e=new g(1,0,0,1,0,0)),h=h.append(e);break;case&quot;scale&quot;:1===l.length?s=new g(l[0],0,0,l[0],0,0):2===l.length?s=new g(l[0],0,0,l[1],0,0):(console.error(&quot;mesh.js: scale does not have 1 or 2 arguments!&quot;),s=new g(1,0,0,1,0,0)),h=h.append(s);break;case&quot;rotate&quot;:if(3===l.length&amp;&amp;(e=new g(1,0,0,1,l[1],l[2]),h=h.append(e)),l[0]){r=l[0]*Math.PI/180;let t=Math.cos(r),e=Math.sin(r);Math.abs(t)&lt;1e-16&amp;&amp;(t=0),Math.abs(e)&lt;1e-16&amp;&amp;(e=0),a=new g(t,e,-e,t,0,0),h=h.append(a)}else console.error(&quot;math.js: No argument to rotate transform!&quot;);3===l.length&amp;&amp;(e=new g(1,0,0,1,-l[1],-l[2]),h=h.append(e));break;case&quot;skewX&quot;:l[0]?(r=l[0]*Math.PI/180,n=Math.tan(r),o=new g(1,0,n,1,0,0),h=h.append(o)):console.error(&quot;math.js: No argument to skewX transform!&quot;);break;case&quot;skewY&quot;:l[0]?(r=l[0]*Math.PI/180,n=Math.tan(r),i=new g(1,n,0,1,0,0),h=h.append(i)):console.error(&quot;math.js: No argument to skewY transform!&quot;);break;case&quot;matrix&quot;:6===l.length?h=h.append(new g(...l)):console.error(&quot;math.js: Incorrect number of arguments for matrix!&quot;);break;default:console.error(&quot;mesh.js: Unhandled transform type: &quot;+d)}}),h},l=t=&gt;{let e=[],s=t.split(/[ ,]+/);for(let t=0,r=s.length-1;t&lt;r;t+=2)e.push(new x(parseFloat(s[t]),parseFloat(s[t+1])));return e},d=(t,e)=&gt;{for(let s in e)t.setAttribute(s,e[s])},c=(t,e,s,r,n)=&gt;{let o,i,a=[0,0,0,0];for(let h=0;h&lt;3;++h)e[h]&lt;t[h]&amp;&amp;e[h]&lt;s[h]||t[h]&lt;e[h]&amp;&amp;s[h]&lt;e[h]?a[h]=0:(a[h]=.5*((e[h]-t[h])/r+(s[h]-e[h])/n),o=Math.abs(3*(e[h]-t[h])/r),i=Math.abs(3*(s[h]-e[h])/n),a[h]&gt;o?a[h]=o:a[h]&gt;i&amp;&amp;(a[h]=i));return a},u=[[1,0,0,0,0,0,0,0,0,0,0,0,0,0,0,0],[0,0,0,0,1,0,0,0,0,0,0,0,0,0,0,0],[-3,3,0,0,-2,-1,0,0,0,0,0,0,0,0,0,0],[2,-2,0,0,1,1,0,0,0,0,0,0,0,0,0,0],[0,0,0,0,0,0,0,0,1,0,0,0,0,0,0,0],[0,0,0,0,0,0,0,0,0,0,0,0,1,0,0,0],[0,0,0,0,0,0,0,0,-3,3,0,0,-2,-1,0,0],[0,0,0,0,0,0,0,0,2,-2,0,0,1,1,0,0],[-3,0,3,0,0,0,0,0,-2,0,-1,0,0,0,0,0],[0,0,0,0,-3,0,3,0,0,0,0,0,-2,0,-1,0],[9,-9,-9,9,6,3,-6,-3,6,-6,3,-3,4,2,2,1],[-6,6,6,-6,-3,-3,3,3,-4,4,-2,2,-2,-2,-1,-1],[2,0,-2,0,0,0,0,0,1,0,1,0,0,0,0,0],[0,0,0,0,2,0,-2,0,0,0,0,0,1,0,1,0],[-6,6,6,-6,-4,-2,4,2,-3,3,-3,3,-2,-1,-2,-1],[4,-4,-4,4,2,2,-2,-2,2,-2,2,-2,1,1,1,1]],f=t=&gt;{let e=[];for(let s=0;s&lt;16;++s){e[s]=0;for(let r=0;r&lt;16;++r)e[s]+=u[s][r]*t[r]}return e},p=(t,e,s)=&gt;{const r=e*e,n=s*s,o=e*e*e,i=s*s*s;return t[0]+t[1]*e+t[2]*r+t[3]*o+t[4]*s+t[5]*s*e+t[6]*s*r+t[7]*s*o+t[8]*n+t[9]*n*e+t[10]*n*r+t[11]*n*o+t[12]*i+t[13]*i*e+t[14]*i*r+t[15]*i*o},y=t=&gt;{let e=[],s=[],r=[];for(let s=0;s&lt;4;++s)e[s]=[],e[s][0]=n(t[0][s],t[1][s],t[2][s],t[3][s]),e[s][1]=[],e[s][1].push(...n(...e[s][0][0])),e[s][1].push(...n(...e[s][0][1])),e[s][2]=[],e[s][2].push(...n(...e[s][1][0])),e[s][2].push(...n(...e[s][1][1])),e[s][2].push(...n(...e[s][1][2])),e[s][2].push(...n(...e[s][1][3]));for(let t=0;t&lt;8;++t){s[t]=[];for(let r=0;r&lt;4;++r)s[t][r]=[],s[t][r][0]=n(e[0][2][t][r],e[1][2][t][r],e[2][2][t][r],e[3][2][t][r]),s[t][r][1]=[],s[t][r][1].push(...n(...s[t][r][0][0])),s[t][r][1].push(...n(...s[t][r][0][1])),s[t][r][2]=[],s[t][r][2].push(...n(...s[t][r][1][0])),s[t][r][2].push(...n(...s[t][r][1][1])),s[t][r][2].push(...n(...s[t][r][1][2])),s[t][r][2].push(...n(...s[t][r][1][3]))}for(let t=0;t&lt;8;++t){r[t]=[];for(let e=0;e&lt;8;++e)r[t][e]=[],r[t][e][0]=s[t][0][2][e],r[t][e][1]=s[t][1][2][e],r[t][e][2]=s[t][2][2][e],r[t][e][3]=s[t][3][2][e]}return r};class x{constructor(t,e){this.x=t||0,this.y=e||0}toString(){return`(x=${this.x}, y=${this.y})`}clone(){return new x(this.x,this.y)}add(t){return new x(this.x+t.x,this.y+t.y)}scale(t){return void 0===t.x?new x(this.x*t,this.y*t):new x(this.x*t.x,this.y*t.y)}distSquared(t){let e=this.x-t.x,s=this.y-t.y;return e*e+s*s}transform(t){let e=this.x*t.a+this.y*t.c+t.e,s=this.x*t.b+this.y*t.d+t.f;return new x(e,s)}}class g{constructor(t,e,s,r,n,o){void 0===t?(this.a=1,this.b=0,this.c=0,this.d=1,this.e=0,this.f=0):(this.a=t,this.b=e,this.c=s,this.d=r,this.e=n,this.f=o)}toString(){return`affine: ${this.a} ${this.c} ${this.e} \n       ${this.b} ${this.d} ${this.f}`}append(t){t instanceof g||console.error(&quot;mesh.js: argument to Affine.append is not affine!&quot;);let e=this.a*t.a+this.c*t.b,s=this.b*t.a+this.d*t.b,r=this.a*t.c+this.c*t.d,n=this.b*t.c+this.d*t.d,o=this.a*t.e+this.c*t.f+this.e,i=this.b*t.e+this.d*t.f+this.f;return new g(e,s,r,n,o,i)}}class w{constructor(t,e){this.nodes=t,this.colors=e}paintCurve(t,e){if(o(this.nodes)&gt;r){const s=n(...this.nodes);let r=[[],[]],o=[[],[]];for(let t=0;t&lt;4;++t)r[0][t]=this.colors[0][t],r[1][t]=(this.colors[0][t]+this.colors[1][t])/2,o[0][t]=r[1][t],o[1][t]=this.colors[1][t];let i=new w(s[0],r),a=new w(s[1],o);i.paintCurve(t,e),a.paintCurve(t,e)}else{let s=Math.round(this.nodes[0].x);if(s&gt;=0&amp;&amp;s&lt;e){let r=4*(~~this.nodes[0].y*e+s);t[r]=Math.round(this.colors[0][0]),t[r+1]=Math.round(this.colors[0][1]),t[r+2]=Math.round(this.colors[0][2]),t[r+3]=Math.round(this.colors[0][3])}}}}class m{constructor(t,e){this.nodes=t,this.colors=e}split(){let t=[[],[],[],[]],e=[[],[],[],[]],s=[[[],[]],[[],[]]],r=[[[],[]],[[],[]]];for(let s=0;s&lt;4;++s){const r=n(this.nodes[0][s],this.nodes[1][s],this.nodes[2][s],this.nodes[3][s]);t[0][s]=r[0][0],t[1][s]=r[0][1],t[2][s]=r[0][2],t[3][s]=r[0][3],e[0][s]=r[1][0],e[1][s]=r[1][1],e[2][s]=r[1][2],e[3][s]=r[1][3]}for(let t=0;t&lt;4;++t)s[0][0][t]=this.colors[0][0][t],s[0][1][t]=this.colors[0][1][t],s[1][0][t]=(this.colors[0][0][t]+this.colors[1][0][t])/2,s[1][1][t]=(this.colors[0][1][t]+this.colors[1][1][t])/2,r[0][0][t]=s[1][0][t],r[0][1][t]=s[1][1][t],r[1][0][t]=this.colors[1][0][t],r[1][1][t]=this.colors[1][1][t];return[new m(t,s),new m(e,r)]}paint(t,e){let s,n=!1;for(let t=0;t&lt;4;++t)if((s=o([this.nodes[0][t],this.nodes[1][t],this.nodes[2][t],this.nodes[3][t]]))&gt;r){n=!0;break}if(n){let s=this.split();s[0].paint(t,e),s[1].paint(t,e)}else{new w([...this.nodes[0]],[...this.colors[0]]).paintCurve(t,e)}}}class b{constructor(t){this.readMesh(t),this.type=t.getAttribute(&quot;type&quot;)||&quot;bilinear&quot;}readMesh(t){let e=[[]],s=[[]],r=Number(t.getAttribute(&quot;x&quot;)),n=Number(t.getAttribute(&quot;y&quot;));e[0][0]=new x(r,n);let o=t.children;for(let t=0,r=o.length;t&lt;r;++t){e[3*t+1]=[],e[3*t+2]=[],e[3*t+3]=[],s[t+1]=[];let r=o[t].children;for(let n=0,o=r.length;n&lt;o;++n){let o=r[n].children;for(let r=0,i=o.length;r&lt;i;++r){let i=r;0!==t&amp;&amp;++i;let h,d=o[r].getAttribute(&quot;path&quot;),c=&quot;l&quot;;null!=d&amp;&amp;(c=(h=d.match(/\s*([lLcC])\s*(.*)/))[1]);let u=l(h[2]);switch(c){case&quot;l&quot;:0===i?(e[3*t][3*n+3]=u[0].add(e[3*t][3*n]),e[3*t][3*n+1]=a(e[3*t][3*n],e[3*t][3*n+3]),e[3*t][3*n+2]=a(e[3*t][3*n+3],e[3*t][3*n])):1===i?(e[3*t+3][3*n+3]=u[0].add(e[3*t][3*n+3]),e[3*t+1][3*n+3]=a(e[3*t][3*n+3],e[3*t+3][3*n+3]),e[3*t+2][3*n+3]=a(e[3*t+3][3*n+3],e[3*t][3*n+3])):2===i?(0===n&amp;&amp;(e[3*t+3][3*n+0]=u[0].add(e[3*t+3][3*n+3])),e[3*t+3][3*n+1]=a(e[3*t+3][3*n],e[3*t+3][3*n+3]),e[3*t+3][3*n+2]=a(e[3*t+3][3*n+3],e[3*t+3][3*n])):(e[3*t+1][3*n]=a(e[3*t][3*n],e[3*t+3][3*n]),e[3*t+2][3*n]=a(e[3*t+3][3*n],e[3*t][3*n]));break;case&quot;L&quot;:0===i?(e[3*t][3*n+3]=u[0],e[3*t][3*n+1]=a(e[3*t][3*n],e[3*t][3*n+3]),e[3*t][3*n+2]=a(e[3*t][3*n+3],e[3*t][3*n])):1===i?(e[3*t+3][3*n+3]=u[0],e[3*t+1][3*n+3]=a(e[3*t][3*n+3],e[3*t+3][3*n+3]),e[3*t+2][3*n+3]=a(e[3*t+3][3*n+3],e[3*t][3*n+3])):2===i?(0===n&amp;&amp;(e[3*t+3][3*n+0]=u[0]),e[3*t+3][3*n+1]=a(e[3*t+3][3*n],e[3*t+3][3*n+3]),e[3*t+3][3*n+2]=a(e[3*t+3][3*n+3],e[3*t+3][3*n])):(e[3*t+1][3*n]=a(e[3*t][3*n],e[3*t+3][3*n]),e[3*t+2][3*n]=a(e[3*t+3][3*n],e[3*t][3*n]));break;case&quot;c&quot;:0===i?(e[3*t][3*n+1]=u[0].add(e[3*t][3*n]),e[3*t][3*n+2]=u[1].add(e[3*t][3*n]),e[3*t][3*n+3]=u[2].add(e[3*t][3*n])):1===i?(e[3*t+1][3*n+3]=u[0].add(e[3*t][3*n+3]),e[3*t+2][3*n+3]=u[1].add(e[3*t][3*n+3]),e[3*t+3][3*n+3]=u[2].add(e[3*t][3*n+3])):2===i?(e[3*t+3][3*n+2]=u[0].add(e[3*t+3][3*n+3]),e[3*t+3][3*n+1]=u[1].add(e[3*t+3][3*n+3]),0===n&amp;&amp;(e[3*t+3][3*n+0]=u[2].add(e[3*t+3][3*n+3]))):(e[3*t+2][3*n]=u[0].add(e[3*t+3][3*n]),e[3*t+1][3*n]=u[1].add(e[3*t+3][3*n]));break;case&quot;C&quot;:0===i?(e[3*t][3*n+1]=u[0],e[3*t][3*n+2]=u[1],e[3*t][3*n+3]=u[2]):1===i?(e[3*t+1][3*n+3]=u[0],e[3*t+2][3*n+3]=u[1],e[3*t+3][3*n+3]=u[2]):2===i?(e[3*t+3][3*n+2]=u[0],e[3*t+3][3*n+1]=u[1],0===n&amp;&amp;(e[3*t+3][3*n+0]=u[2])):(e[3*t+2][3*n]=u[0],e[3*t+1][3*n]=u[1]);break;default:console.error(&quot;mesh.js: &quot;+c+&quot; invalid path type.&quot;)}if(0===t&amp;&amp;0===n||r&gt;0){let e=window.getComputedStyle(o[r]).stopColor.match(/^rgb\s*\(\s*(\d+)\s*,\s*(\d+)\s*,\s*(\d+)\s*\)$/i),a=window.getComputedStyle(o[r]).stopOpacity,h=255;a&amp;&amp;(h=Math.floor(255*a)),e&amp;&amp;(0===i?(s[t][n]=[],s[t][n][0]=Math.floor(e[1]),s[t][n][1]=Math.floor(e[2]),s[t][n][2]=Math.floor(e[3]),s[t][n][3]=h):1===i?(s[t][n+1]=[],s[t][n+1][0]=Math.floor(e[1]),s[t][n+1][1]=Math.floor(e[2]),s[t][n+1][2]=Math.floor(e[3]),s[t][n+1][3]=h):2===i?(s[t+1][n+1]=[],s[t+1][n+1][0]=Math.floor(e[1]),s[t+1][n+1][1]=Math.floor(e[2]),s[t+1][n+1][2]=Math.floor(e[3]),s[t+1][n+1][3]=h):3===i&amp;&amp;(s[t+1][n]=[],s[t+1][n][0]=Math.floor(e[1]),s[t+1][n][1]=Math.floor(e[2]),s[t+1][n][2]=Math.floor(e[3]),s[t+1][n][3]=h))}}e[3*t+1][3*n+1]=new x,e[3*t+1][3*n+2]=new x,e[3*t+2][3*n+1]=new x,e[3*t+2][3*n+2]=new x,e[3*t+1][3*n+1].x=(-4*e[3*t][3*n].x+6*(e[3*t][3*n+1].x+e[3*t+1][3*n].x)+-2*(e[3*t][3*n+3].x+e[3*t+3][3*n].x)+3*(e[3*t+3][3*n+1].x+e[3*t+1][3*n+3].x)+-1*e[3*t+3][3*n+3].x)/9,e[3*t+1][3*n+2].x=(-4*e[3*t][3*n+3].x+6*(e[3*t][3*n+2].x+e[3*t+1][3*n+3].x)+-2*(e[3*t][3*n].x+e[3*t+3][3*n+3].x)+3*(e[3*t+3][3*n+2].x+e[3*t+1][3*n].x)+-1*e[3*t+3][3*n].x)/9,e[3*t+2][3*n+1].x=(-4*e[3*t+3][3*n].x+6*(e[3*t+3][3*n+1].x+e[3*t+2][3*n].x)+-2*(e[3*t+3][3*n+3].x+e[3*t][3*n].x)+3*(e[3*t][3*n+1].x+e[3*t+2][3*n+3].x)+-1*e[3*t][3*n+3].x)/9,e[3*t+2][3*n+2].x=(-4*e[3*t+3][3*n+3].x+6*(e[3*t+3][3*n+2].x+e[3*t+2][3*n+3].x)+-2*(e[3*t+3][3*n].x+e[3*t][3*n+3].x)+3*(e[3*t][3*n+2].x+e[3*t+2][3*n].x)+-1*e[3*t][3*n].x)/9,e[3*t+1][3*n+1].y=(-4*e[3*t][3*n].y+6*(e[3*t][3*n+1].y+e[3*t+1][3*n].y)+-2*(e[3*t][3*n+3].y+e[3*t+3][3*n].y)+3*(e[3*t+3][3*n+1].y+e[3*t+1][3*n+3].y)+-1*e[3*t+3][3*n+3].y)/9,e[3*t+1][3*n+2].y=(-4*e[3*t][3*n+3].y+6*(e[3*t][3*n+2].y+e[3*t+1][3*n+3].y)+-2*(e[3*t][3*n].y+e[3*t+3][3*n+3].y)+3*(e[3*t+3][3*n+2].y+e[3*t+1][3*n].y)+-1*e[3*t+3][3*n].y)/9,e[3*t+2][3*n+1].y=(-4*e[3*t+3][3*n].y+6*(e[3*t+3][3*n+1].y+e[3*t+2][3*n].y)+-2*(e[3*t+3][3*n+3].y+e[3*t][3*n].y)+3*(e[3*t][3*n+1].y+e[3*t+2][3*n+3].y)+-1*e[3*t][3*n+3].y)/9,e[3*t+2][3*n+2].y=(-4*e[3*t+3][3*n+3].y+6*(e[3*t+3][3*n+2].y+e[3*t+2][3*n+3].y)+-2*(e[3*t+3][3*n].y+e[3*t][3*n+3].y)+3*(e[3*t][3*n+2].y+e[3*t+2][3*n].y)+-1*e[3*t][3*n].y)/9}}this.nodes=e,this.colors=s}paintMesh(t,e){let s=(this.nodes.length-1)/3,r=(this.nodes[0].length-1)/3;if(&quot;bilinear&quot;===this.type||s&lt;2||r&lt;2){let n;for(let o=0;o&lt;s;++o)for(let s=0;s&lt;r;++s){let r=[];for(let t=3*o,e=3*o+4;t&lt;e;++t)r.push(this.nodes[t].slice(3*s,3*s+4));let i=[];i.push(this.colors[o].slice(s,s+2)),i.push(this.colors[o+1].slice(s,s+2)),(n=new m(r,i)).paint(t,e)}}else{let n,o,a,h,l,d,u;const x=s,g=r;s++,r++;let w=new Array(s);for(let t=0;t&lt;s;++t){w[t]=new Array(r);for(let e=0;e&lt;r;++e)w[t][e]=[],w[t][e][0]=this.nodes[3*t][3*e],w[t][e][1]=this.colors[t][e]}for(let t=0;t&lt;s;++t)for(let e=0;e&lt;r;++e)0!==t&amp;&amp;t!==x&amp;&amp;(n=i(w[t-1][e][0],w[t][e][0]),o=i(w[t+1][e][0],w[t][e][0]),w[t][e][2]=c(w[t-1][e][1],w[t][e][1],w[t+1][e][1],n,o)),0!==e&amp;&amp;e!==g&amp;&amp;(n=i(w[t][e-1][0],w[t][e][0]),o=i(w[t][e+1][0],w[t][e][0]),w[t][e][3]=c(w[t][e-1][1],w[t][e][1],w[t][e+1][1],n,o));for(let t=0;t&lt;r;++t){w[0][t][2]=[],w[x][t][2]=[];for(let e=0;e&lt;4;++e)n=i(w[1][t][0],w[0][t][0]),o=i(w[x][t][0],w[x-1][t][0]),w[0][t][2][e]=n&gt;0?2*(w[1][t][1][e]-w[0][t][1][e])/n-w[1][t][2][e]:0,w[x][t][2][e]=o&gt;0?2*(w[x][t][1][e]-w[x-1][t][1][e])/o-w[x-1][t][2][e]:0}for(let t=0;t&lt;s;++t){w[t][0][3]=[],w[t][g][3]=[];for(let e=0;e&lt;4;++e)n=i(w[t][1][0],w[t][0][0]),o=i(w[t][g][0],w[t][g-1][0]),w[t][0][3][e]=n&gt;0?2*(w[t][1][1][e]-w[t][0][1][e])/n-w[t][1][3][e]:0,w[t][g][3][e]=o&gt;0?2*(w[t][g][1][e]-w[t][g-1][1][e])/o-w[t][g-1][3][e]:0}for(let s=0;s&lt;x;++s)for(let r=0;r&lt;g;++r){let n=i(w[s][r][0],w[s+1][r][0]),o=i(w[s][r+1][0],w[s+1][r+1][0]),c=i(w[s][r][0],w[s][r+1][0]),x=i(w[s+1][r][0],w[s+1][r+1][0]),g=[[],[],[],[]];for(let t=0;t&lt;4;++t){(d=[])[0]=w[s][r][1][t],d[1]=w[s+1][r][1][t],d[2]=w[s][r+1][1][t],d[3]=w[s+1][r+1][1][t],d[4]=w[s][r][2][t]*n,d[5]=w[s+1][r][2][t]*n,d[6]=w[s][r+1][2][t]*o,d[7]=w[s+1][r+1][2][t]*o,d[8]=w[s][r][3][t]*c,d[9]=w[s+1][r][3][t]*x,d[10]=w[s][r+1][3][t]*c,d[11]=w[s+1][r+1][3][t]*x,d[12]=0,d[13]=0,d[14]=0,d[15]=0,u=f(d);for(let e=0;e&lt;9;++e){g[t][e]=[];for(let s=0;s&lt;9;++s)g[t][e][s]=p(u,e/8,s/8),g[t][e][s]&gt;255?g[t][e][s]=255:g[t][e][s]&lt;0&amp;&amp;(g[t][e][s]=0)}}h=[];for(let t=3*s,e=3*s+4;t&lt;e;++t)h.push(this.nodes[t].slice(3*r,3*r+4));l=y(h);for(let s=0;s&lt;8;++s)for(let r=0;r&lt;8;++r)(a=new m(l[s][r],[[[g[0][s][r],g[1][s][r],g[2][s][r],g[3][s][r]],[g[0][s][r+1],g[1][s][r+1],g[2][s][r+1],g[3][s][r+1]]],[[g[0][s+1][r],g[1][s+1][r],g[2][s+1][r],g[3][s+1][r]],[g[0][s+1][r+1],g[1][s+1][r+1],g[2][s+1][r+1],g[3][s+1][r+1]]]])).paint(t,e)}}}transform(t){if(t instanceof x)for(let e=0,s=this.nodes.length;e&lt;s;++e)for(let s=0,r=this.nodes[0].length;s&lt;r;++s)this.nodes[e][s]=this.nodes[e][s].add(t);else if(t instanceof g)for(let e=0,s=this.nodes.length;e&lt;s;++e)for(let s=0,r=this.nodes[0].length;s&lt;r;++s)this.nodes[e][s]=this.nodes[e][s].transform(t)}scale(t){for(let e=0,s=this.nodes.length;e&lt;s;++e)for(let s=0,r=this.nodes[0].length;s&lt;r;++s)this.nodes[e][s]=this.nodes[e][s].scale(t)}}document.querySelectorAll(&quot;rect,circle,ellipse,path,text&quot;).forEach((r,n)=&gt;{let o=r.getAttribute(&quot;id&quot;);o||(o=&quot;patchjs_shape&quot;+n,r.setAttribute(&quot;id&quot;,o));const i=r.style.fill.match(/^url\(\s*&quot;?\s*#([^\s&quot;]+)&quot;?\s*\)/),a=r.style.stroke.match(/^url\(\s*&quot;?\s*#([^\s&quot;]+)&quot;?\s*\)/);if(i&amp;&amp;i[1]){const a=document.getElementById(i[1]);if(a&amp;&amp;&quot;meshgradient&quot;===a.nodeName){const i=r.getBBox();let l=document.createElementNS(s,&quot;canvas&quot;);d(l,{width:i.width,height:i.height});const c=l.getContext(&quot;2d&quot;);let u=c.createImageData(i.width,i.height);const f=new b(a);&quot;objectBoundingBox&quot;===a.getAttribute(&quot;gradientUnits&quot;)&amp;&amp;f.scale(new x(i.width,i.height));const p=a.getAttribute(&quot;gradientTransform&quot;);null!=p&amp;&amp;f.transform(h(p)),&quot;userSpaceOnUse&quot;===a.getAttribute(&quot;gradientUnits&quot;)&amp;&amp;f.transform(new x(-i.x,-i.y)),f.paintMesh(u.data,l.width),c.putImageData(u,0,0);const y=document.createElementNS(t,&quot;image&quot;);d(y,{width:i.width,height:i.height,x:i.x,y:i.y});let g=l.toDataURL();y.setAttributeNS(e,&quot;xlink:href&quot;,g),r.parentNode.insertBefore(y,r),r.style.fill=&quot;none&quot;;const w=document.createElementNS(t,&quot;use&quot;);w.setAttributeNS(e,&quot;xlink:href&quot;,&quot;#&quot;+o);const m=&quot;patchjs_clip&quot;+n,M=document.createElementNS(t,&quot;clipPath&quot;);M.setAttribute(&quot;id&quot;,m),M.appendChild(w),r.parentElement.insertBefore(M,r),y.setAttribute(&quot;clip-path&quot;,&quot;url(#&quot;+m+&quot;)&quot;),u=null,l=null,g=null}}if(a&amp;&amp;a[1]){const o=document.getElementById(a[1]);if(o&amp;&amp;&quot;meshgradient&quot;===o.nodeName){const i=parseFloat(r.style.strokeWidth.slice(0,-2))*(parseFloat(r.style.strokeMiterlimit)||parseFloat(r.getAttribute(&quot;stroke-miterlimit&quot;))||1),a=r.getBBox(),l=Math.trunc(a.width+i),c=Math.trunc(a.height+i),u=Math.trunc(a.x-i/2),f=Math.trunc(a.y-i/2);let p=document.createElementNS(s,&quot;canvas&quot;);d(p,{width:l,height:c});const y=p.getContext(&quot;2d&quot;);let g=y.createImageData(l,c);const w=new b(o);&quot;objectBoundingBox&quot;===o.getAttribute(&quot;gradientUnits&quot;)&amp;&amp;w.scale(new x(l,c));const m=o.getAttribute(&quot;gradientTransform&quot;);null!=m&amp;&amp;w.transform(h(m)),&quot;userSpaceOnUse&quot;===o.getAttribute(&quot;gradientUnits&quot;)&amp;&amp;w.transform(new x(-u,-f)),w.paintMesh(g.data,p.width),y.putImageData(g,0,0);const M=document.createElementNS(t,&quot;image&quot;);d(M,{width:l,height:c,x:0,y:0});let S=p.toDataURL();M.setAttributeNS(e,&quot;xlink:href&quot;,S);const k=&quot;pattern_clip&quot;+n,A=document.createElementNS(t,&quot;pattern&quot;);d(A,{id:k,patternUnits:&quot;userSpaceOnUse&quot;,width:l,height:c,x:u,y:f}),A.appendChild(M),o.parentNode.appendChild(A),r.style.stroke=&quot;url(#&quot;+k+&quot;)&quot;,g=null,p=null,S=null}}})}();
</script></svg>
