<svg xmlns="http://www.w3.org/2000/svg" width="457.764" height="315.382" data-jsgraph-version="v2.2.36" font-family="'Myriad Pro', Helvetica, Arial" font-size="12" tabindex="0"><g style="fill:none;fill-opacity:1;stroke:#000;stroke-opacity:1"><path fill="transparent" d="M50.031 30H480v120H50.031z" pointer-events="fill" style="fill:none;fill-opacity:1;stroke:#000;stroke-opacity:1" transform="translate(-24.885 -8.26)"/><g style="fill:none;fill-opacity:1;stroke:#000;stroke-opacity:1"><g style="fill:none;fill-opacity:1;stroke:#000;stroke-opacity:1"><g style="fill:none;fill-opacity:1;stroke:#000;stroke-opacity:1"><path d="M38.462 0v-2m8.431 2v-2m8.431 2v-2m8.43 2v-2m8.431 2v-4m8.431 4v-2m8.431 2v-2m8.43 2v-2m8.431 2v-2M30.031 0v-6m92.739 6v-2m8.43 2v-2m8.431 2v-2m8.431 2v-2m8.431 2v-4m8.43 4v-2m8.431 2v-2m8.431 2v-2m8.431 2v-2m-75.877 2v-6m92.738 6v-2m8.431 2v-2m8.431 2v-2m8.43 2v-2m8.431 2v-4m8.431 4v-2m8.431 2v-2m8.431 2v-2m8.43 2v-2m-75.877 2v-6m92.739 6v-2m8.431 2v-2m8.43 2v-2m8.431 2v-2m8.431 2v-4m8.431 4v-2m8.43 2v-2m8.431 2v-2m8.431 2v-2m-75.877 2v-6m92.738 6v-2m8.431 2v-2m8.431 2v-2m8.431 2v-2m8.43 2v-4m8.431 4v-2m8.431 2v-2m8.431 2v-2m8.43 2v-2m-75.876 2v-6M460 0v-2m-8.431 2v-6" style="fill:none;fill-opacity:1;stroke:#000;stroke-opacity:1" transform="translate(-4.885 141.74)"/><g style="fill:none;fill-opacity:1;stroke:#000;stroke-opacity:1" text-anchor="middle"><text x="30.031" y="8" style="dominant-baseline:hanging;fill:none;fill-opacity:1;stroke:#000;stroke-opacity:1" transform="translate(-4.885 141.74)">0</text><text x="114.339" y="8" style="dominant-baseline:hanging;fill:none;fill-opacity:1;stroke:#000;stroke-opacity:1" transform="translate(-4.885 141.74)">50</text><text x="198.646" y="8" style="dominant-baseline:hanging;fill:none;fill-opacity:1;stroke:#000;stroke-opacity:1" transform="translate(-4.885 141.74)">100</text><text x="282.954" y="8" style="dominant-baseline:hanging;fill:none;fill-opacity:1;stroke:#000;stroke-opacity:1" transform="translate(-4.885 141.74)">150</text><text x="367.262" y="8" style="dominant-baseline:hanging;fill:none;fill-opacity:1;stroke:#000;stroke-opacity:1" transform="translate(-4.885 141.74)">200</text><text x="451.569" y="8" style="dominant-baseline:hanging;fill:none;fill-opacity:1;stroke:#000;stroke-opacity:1" transform="translate(-4.885 141.74)">250</text></g><path stroke-linecap="square" d="M30.031 0H460" display="block" shape-rendering="crispEdges" style="fill:none;fill-opacity:1;stroke:#000;stroke-opacity:1" transform="translate(-4.885 141.74)"/></g><g style="fill:none;fill-opacity:1;stroke:#000;stroke-opacity:1"><path d="M0 111.111h2m-2-5.555h2M0 100h2m-2-5.556h2m-2-5.555h4m-4-5.556h2m-2-5.555h2m-2-5.556h2m-2-5.555h2m-2 50h6M0 55.556h2M0 50h2m-2-5.556h2m-2-5.555h2m-2-5.556h4m-4-5.555h2m-2-5.556h2m-2-5.555h2m-2-5.556h2m-2 50h6M0 0h2M0 5.556h6" style="fill:none;fill-opacity:1;stroke:#000;stroke-opacity:1" transform="translate(25.146 21.74)"/><g style="fill:none;fill-opacity:1;stroke:#000;stroke-opacity:1" text-anchor="end"><text x="-5" y="116.667" style="dominant-baseline:central;fill:none;fill-opacity:1;stroke:#000;stroke-opacity:1" transform="translate(25.146 21.74)">150</text><text x="-5" y="61.111" style="dominant-baseline:central;fill:none;fill-opacity:1;stroke:#000;stroke-opacity:1" transform="translate(25.146 21.74)">200</text><text x="-5" y="5.556" style="dominant-baseline:central;fill:none;fill-opacity:1;stroke:#000;stroke-opacity:1" transform="translate(25.146 21.74)">250</text></g><path stroke-linecap="square" d="M0 120V0" display="block" shape-rendering="crispEdges" style="fill:none;fill-opacity:1;stroke:#000;stroke-opacity:1" transform="translate(25.146 21.74)"/></g></g><path stroke="rgba(156,156,156,1)" d="m30 24.4 1.6 23.2 1.8-5.4L35 28.8l1.6 8.8 1.8-1 1.6-9 1.8 6.8 1.6-4.6h11.8l1.8-3.2 1.6 4.4 1.6 10L62 54.4l1.6 7.8 1.8-4.6L67 43.2l1.8-14.4 1.6-4.4 1.6 3.2 1.8 3.4 1.6 3.4h1.8l1.6 1 1.8 1.2h1.6l1.6 11 1.8 4.6 1.6 10 1.8 4.4 1.6-14.4 1.8-22.4 1.6-7.6 1.6 5.4 1.8-3.2 1.6 1 1.8 2.2 1.6 2.2 1.8-1 1.6-3.4 1.6-3.2 1.8-2.4 1.6 1.2h1.8l1.6-1.2 1.8-1h1.6l1.6-1.2 1.8-1h1.6l1.8-1.2 1.6-1 1.8-2.2 1.6-1.2 1.8-1.2h1.6l1.6 1.2 1.8 1.2 1.6-2.4 1.8 2.4 1.6 4.4 1.8 3.2h1.6l1.6-3.2L148 11l1.6-3.4h1.8l1.6 1.2 1.8 1 1.6 1.2 1.6 1.2 1.8-1.2 1.6-1.2 1.8-1 1.6-1.2h1.8l1.6-1h1.6l1.8-1.2 1.6-1h1.8l1.6-1.2 1.8 3.4 1.6 3.2 1.6 20 1.8 22.4 1.6-6.8 1.8-30L188.4 0l1.8 4.4 1.6-4.4h1.6l1.8 2.2 1.6 1h1.8l1.6-1L202 0h1.6l1.6 1H217l1.8-1 1.6 5.4 1.8 4.4 1.6 1.2 1.8-4.4 1.6-3.4h5l1.8 1.2 1.6 1h1.8l1.6-1 1.8-1.2 1.6-2.2 1.6-1 1.8 1h11.8l1.6-1 1.8 3.2 1.6 6.6 1.8 1.2 1.6-4.4 1.6-5.6 1.8-1h1.6l1.8 1H298l1.8 4.4 1.6 24.4 1.6 44.6 1.8 4.4 1.6-43.4 1.8-26.6 1.6-1.2 1.8-7.6 1.6 9.8 1.6 5.6 1.8 29 1.6 30 1.8-16.8 1.6-45.4L323.4 0l1.6 11 1.6-11 1.8 43.2 1.6 53.4 1.8-4.4 1.6-42.4 1.8-34.4 1.6-8.8 1.6 2.2 1.8-3.4 1.6 9 1.8 8.8h1.6l1.8-8.8 1.6-7.8 1.8-1.2 1.6 2.2 1.6-6.6h11.8l1.8 2.2 1.6-1 1.8-1.2h1.6l1.8 1.2 1.6 1 1.6 2.2 1.8 1.2 1.6 2.2h1.8l1.6 7.8 1.8 8.8 1.6-5.6L389 6.6l1.8-5.6 1.6 4.4 1.8 4.4 1.6-9.8 1.8 8.8 1.6 43.4 1.6 51 1.8 6.6 1.6-47.6L406 7.6l1.6 1.2 1.8 14.4 1.6 49 1.6 47.6 1.8-18.8 1.6-65.6 1.8-32.2 1.6 12.2 1.8-8.8 1.6 13.2 1.6 45.6 1.8 40 1.6-21 1.8-59 1.6-17.8 1.8 22.2 1.6 34.6 1.6 2.2 1.8-14.4 1.6-27.8 1.8-12.2 1.6 15.4 1.8 21.2 1.6 10 1.6-19 1.8-13.2L451.4 0l1.8 8.8 1.6-2.2 1.8 22.2 1.6 63.4" data-layer="1" style="fill:none;fill-opacity:1;stroke:#000;stroke-opacity:1" transform="translate(-4.885 21.74)"/></g></g><g style="fill:none;stroke:#000;stroke-opacity:1"><path fill="transparent" d="M50.031 30H480v120H50.031z" pointer-events="fill" style="fill:none;stroke:#000;stroke-opacity:1" transform="translate(-22.736 148.827)"/><g style="fill:none;stroke:#000;stroke-opacity:1"><g style="fill:none;stroke:#000;stroke-opacity:1"><g style="fill:none;stroke:#000;stroke-opacity:1"><path d="M38.429 0v-2m8.398 2v-2m8.398 2v-2m8.398 2v-2m8.397 2v-4m8.398 4v-2m8.398 2v-2m8.398 2v-2m8.398 2v-2M30.031 0v-6m92.376 6v-2m8.398 2v-2m8.398 2v-2m8.398 2v-2m8.398 2v-4m8.397 4v-2m8.398 2v-2m8.398 2v-2m8.398 2v-2m-75.58 2v-6m92.376 6v-2m8.397 2v-2m8.398 2v-2m8.398 2v-2m8.398 2v-4m8.398 4v-2m8.398 2v-2m8.397 2v-2m8.398 2v-2m-75.58 2v-6m92.376 6v-2m8.398 2v-2m8.398 2v-2m8.397 2v-2m8.398 2v-4m8.398 4v-2m8.398 2v-2m8.398 2v-2m8.398 2v-2m-75.581 2v-6m92.376 6v-2m8.398 2v-2m8.398 2v-2m8.398 2v-2m8.397 2v-4m8.398 4v-2m8.398 2v-2m8.398 2v-2m8.398 2v-2m-75.581 2v-6m92.376 6v-2m-8.397 2v-6" style="fill:none;stroke:#000;stroke-opacity:1" transform="translate(-2.736 298.827)"/><g style="fill:none;stroke:#000;stroke-opacity:1" text-anchor="middle"><text x="30.031" y="8" style="dominant-baseline:hanging;fill:none;stroke:#000;stroke-opacity:1" transform="translate(-2.736 298.827)">0</text><text x="114.01" y="8" style="dominant-baseline:hanging;fill:none;stroke:#000;stroke-opacity:1" transform="translate(-2.736 298.827)">50</text><text x="197.988" y="8" style="dominant-baseline:hanging;fill:none;stroke:#000;stroke-opacity:1" transform="translate(-2.736 298.827)">100</text><text x="281.966" y="8" style="dominant-baseline:hanging;fill:none;stroke:#000;stroke-opacity:1" transform="translate(-2.736 298.827)">150</text><text x="365.944" y="8" style="dominant-baseline:hanging;fill:none;stroke:#000;stroke-opacity:1" transform="translate(-2.736 298.827)">200</text><text x="449.923" y="8" style="dominant-baseline:hanging;fill:none;stroke:#000;stroke-opacity:1" transform="translate(-2.736 298.827)">250</text></g><path stroke-linecap="square" d="M30.031 0H460" display="block" shape-rendering="crispEdges" style="fill:none;stroke:#000;stroke-opacity:1" transform="translate(-2.736 298.827)"/></g><g style="fill:none;stroke:#000;stroke-opacity:1"><path d="M0 120h2m-2-4.948h2m-2-2.475h2m-2-2.474h2m-2-4.948h4m-4 2.474h2m-2-4.949h2m-2-2.474h2m-2-2.474h2m-2 19.794h6M0 95.258h2m-2-4.949h2m-2-2.474h2m-2-2.474h2m-2-4.949h4m-4 2.475h2m-2-4.949h2m-2-2.474h2M0 72.99h2M0 92.784h6M0 70.515h2m-2-4.948h2m-2-2.474h2m-2-2.474h2M0 55.67h4m-4 2.474h2m-2 9.897h6M0 53.196h2m-2-2.474h2m-2-2.475h2m-2-2.474h2m-2-4.948h2m-2-2.474h2m-2-2.475h2m-2-4.948h4m-4 2.474h2m-2-4.948h2m-2-2.475h2m-2-2.474h2m-2-2.474h2m-2-4.949h2m-2-2.474h2m-2-2.474h2M0 6.186h4M0 8.66h2M0 43.299h6M0 18.557h6M0 3.711h2M0 1.237h2" style="fill:none;stroke:#000;stroke-opacity:1" transform="translate(27.295 178.827)"/><g style="fill:none;stroke:#000;stroke-opacity:1" text-anchor="end"><text x="-5" y="117.526" style="dominant-baseline:central;fill:none;stroke:#000;stroke-opacity:1" transform="translate(27.295 178.827)">160</text><text x="-5" y="92.784" style="dominant-baseline:central;fill:none;stroke:#000;stroke-opacity:1" transform="translate(27.295 178.827)">180</text><text x="-5" y="68.041" style="dominant-baseline:central;fill:none;stroke:#000;stroke-opacity:1" transform="translate(27.295 178.827)">200</text><text x="-5" y="43.299" style="dominant-baseline:central;fill:none;stroke:#000;stroke-opacity:1" transform="translate(27.295 178.827)">220</text><text x="-5" y="18.557" style="dominant-baseline:central;fill:none;stroke:#000;stroke-opacity:1" transform="translate(27.295 178.827)">240</text></g><path stroke-linecap="square" d="M0 120V0" display="block" shape-rendering="crispEdges" style="fill:none;stroke:#000;stroke-opacity:1" transform="translate(27.295 178.827)"/></g></g><path stroke="rgba(156,156,156,1)" d="m30 82.8 1.6-55.6 1.6-26L35 9.8l1.6 1.2 1.8-1.2L40 16l1.6 2.4 1.8-4.8 1.6 1.2 1.8 1.2 1.6 2.4L50 21l1.8 1.2 1.6 2.4h1.8l1.6-9.8 1.6-5h1.8l1.6 5 1.8 2.4 1.6 3.8 1.6 12.4 1.8 16L70.2 63 72 75.4l1.6 19.8 1.6 7.4 1.8-10L78.6 79l1.8 5L82 98.8l1.6 3.8L85.4 79 87 64.2l1.8-1.2 1.6-11.2 1.6-11 1.8 18.4 1.6 32.2 1.8-9.8 1.6-43.4 1.6-21 1.8 3.8 1.6-3.8 1.8-1.2 1.6 2.4 1.6-3.6 1.8 4.8h11.8L124 21l1.6 7.4h1.8l1.6-10 1.8-6.2 1.6 1.4h1.6l1.8-3.8 1.6 7.4 1.8 1.2h1.6l1.6 1.2 1.8 1.4 1.6 1.2h5l1.8-2.6h1.6l1.6 7.6 1.8 7.4h1.6l1.8-8.8 1.6-8.6 1.6 2.4H176l1.8 1.4 1.6 6.2 1.6-5 1.8-2.6 1.6 5 1.8-6.2 1.6 3.8 1.6 24.8 1.8 38.2 1.6 34.6 1.8-55.6 1.6-35.8 1.6 7.4 1.8 12.4 1.6 44.4 1.8 16.2 1.6-32.2 1.6-17.4L208 37l1.6-16 1.8 3.6L213 47l1.6 29.6 1.8 21 1.6 2.6 1.8 18.4 1.6-13.6 1.6-53.2 1.8-40.8 1.6-2.4 1.8 5 1.6-6.2 1.6-3.8h1.8l1.6-1.2 1.8-1.2h1.6l1.6-1.2h3.4l1.8 1.2h11.6l1.8 1.2 1.6-1.2 1.8 3.6 1.6 8.8L265 21l1.8-1.4 1.6-11 1.8-8.6h1.6l1.6 8.6 1.8 24.8 1.6 30.8 1.8 18.6 1.6-8.6 1.6-29.8 1.8-27.2 1.6 3.8 1.8-3.8 1.6-5h5l1.8-4.8 1.6-3.8 1.6-3.6 1.8 16 1.6 55.6 1.8 23.6 1.6-50.8L307 4.8h1.8l1.6-1.2 1.6-2.4h25.2L339 0l1.6 9.8 1.8 7.4L344 16l1.6-8.6 1.8-7.4h3.4l1.6 1.2h11.8l1.6 3.6 1.8-2.4 1.6-2.4h5l1.8 2.4 1.6 2.4 1.6 1.2 1.8 1.4 1.6 14.8 1.8 3.6L386 8.6l1.6-3.8 1.8 6.2 1.6-6.2 1.8 3.8h1.6l1.6 1.2 1.8 1.2h1.6l1.8 1.2 1.6 1.4h1.6l1.8-2.6h1.6l1.8 1.2h1.6l1.6 1.4 1.8 1.2 1.6 1.2h1.8l1.6 5 1.6 29.6 1.8 27.2 1.6-1.2 1.8-27.2 1.6-27.2 1.6-10 1.8 2.6 1.6-1.2 1.8 6 1.6-1.2L438 11l1.8 5 1.6 22.2 1.8 26 1.6 13.6 1.6-6.2 1.8-1.2 1.6-6.2 1.8 24.8 1.6-6.2 1.6-3.8 1.8 16.2 1.6-52" data-layer="1" style="fill:none;stroke:#000;stroke-opacity:1" transform="translate(-2.736 178.827)"/></g></g><text xml:space="preserve" x="24.303" y="21.24" style="font-size:29.3333px;font-family:Avenir;-inkscape-font-specification:Avenir;fill:red;fill-opacity:1;stroke:red;stroke-width:.944882;stroke-opacity:1"><tspan x="24.303" y="21.24">Row</tspan></text><text xml:space="preserve" x="25.396" y="178.326" style="font-size:29.3333px;font-family:Avenir;-inkscape-font-specification:Avenir;fill:red;fill-opacity:1;stroke:red;stroke-width:.944882;stroke-opacity:1"><tspan x="25.396" y="178.326">Column</tspan></text></svg>