<svg xmlns="http://www.w3.org/2000/svg" width="456.122" height="320.833" data-jsgraph-version="v2.2.36" font-family="'Myriad Pro', Helvetica, Arial" font-size="12" tabindex="0"><g style="fill:none;stroke:#000;stroke-opacity:1"><path fill="transparent" d="M50.031 30H480v120H50.031z" pointer-events="fill" style="fill:none;stroke:#000;stroke-opacity:1" transform="translate(-25.449 -8.76)"/><g style="fill:none;stroke:#000;stroke-opacity:1"><g style="fill:none;stroke:#000;stroke-opacity:1"><g style="fill:none;stroke:#000;stroke-opacity:1"><path d="M38.462 0v-2m8.431 2v-2m8.431 2v-2m8.43 2v-2m8.431 2v-4m8.431 4v-2m8.431 2v-2m8.43 2v-2m8.431 2v-2M30.031 0v-6m92.739 6v-2m8.43 2v-2m8.431 2v-2m8.431 2v-2m8.431 2v-4m8.43 4v-2m8.431 2v-2m8.431 2v-2m8.431 2v-2m-75.877 2v-6m92.738 6v-2m8.431 2v-2m8.431 2v-2m8.43 2v-2m8.431 2v-4m8.431 4v-2m8.431 2v-2m8.431 2v-2m8.43 2v-2m-75.877 2v-6m92.739 6v-2m8.431 2v-2m8.43 2v-2m8.431 2v-2m8.431 2v-4m8.431 4v-2m8.43 2v-2m8.431 2v-2m8.431 2v-2m-75.877 2v-6m92.738 6v-2m8.431 2v-2m8.431 2v-2m8.431 2v-2m8.43 2v-4m8.431 4v-2m8.431 2v-2m8.431 2v-2m8.43 2v-2m-75.876 2v-6M460 0v-2m-8.431 2v-6" style="fill:none;stroke:#000;stroke-opacity:1" transform="translate(-5.449 141.24)"/><g style="fill:none;stroke:#000;stroke-opacity:1" text-anchor="middle"><text x="30.031" y="8" style="dominant-baseline:hanging;fill:none;stroke:#000;stroke-opacity:1" transform="translate(-5.449 141.24)">0</text><text x="114.339" y="8" style="dominant-baseline:hanging;fill:none;stroke:#000;stroke-opacity:1" transform="translate(-5.449 141.24)">50</text><text x="198.646" y="8" style="dominant-baseline:hanging;fill:none;stroke:#000;stroke-opacity:1" transform="translate(-5.449 141.24)">100</text><text x="282.954" y="8" style="dominant-baseline:hanging;fill:none;stroke:#000;stroke-opacity:1" transform="translate(-5.449 141.24)">150</text><text x="367.262" y="8" style="dominant-baseline:hanging;fill:none;stroke:#000;stroke-opacity:1" transform="translate(-5.449 141.24)">200</text><text x="451.569" y="8" style="dominant-baseline:hanging;fill:none;stroke:#000;stroke-opacity:1" transform="translate(-5.449 141.24)">250</text></g><path stroke-linecap="square" d="M30.031 0H460" display="block" shape-rendering="crispEdges" style="fill:none;stroke:#000;stroke-opacity:1" transform="translate(-5.449 141.24)"/></g><g style="fill:none;stroke:#000;stroke-opacity:1"><path d="M0 116.667h2m-2-8.334h2m-2-4.166h2M0 100h2m-2 12.5h4M0 95.833h2M0 87.5h2m-2-4.167h2m-2-4.166h2m-2 12.5h6M0 75h2m-2-8.333h2M0 62.5h2m-2-4.167h2m-2 12.5h4M0 54.167h2m-2-8.334h2m-2-4.166h2M0 37.5h2M0 50h6M0 33.333h2M0 25h2m-2-4.167h2m-2-4.166h2m-2 12.5h4M0 12.5h2M0 4.167h2M0 0h2M0 8.333h6" style="fill:none;stroke:#000;stroke-opacity:1" transform="translate(24.582 21.24)"/><g style="fill:none;stroke:#000;stroke-opacity:1" text-anchor="end"><text x="-5" y="91.667" style="dominant-baseline:central;fill:none;stroke:#000;stroke-opacity:1" transform="translate(24.582 21.24)">50</text><text x="-5" y="50" style="dominant-baseline:central;fill:none;stroke:#000;stroke-opacity:1" transform="translate(24.582 21.24)">100</text><text x="-5" y="8.333" style="dominant-baseline:central;fill:none;stroke:#000;stroke-opacity:1" transform="translate(24.582 21.24)">150</text></g><path stroke-linecap="square" d="M0 120V0" display="block" shape-rendering="crispEdges" style="fill:none;stroke:#000;stroke-opacity:1" transform="translate(24.582 21.24)"/></g></g><path stroke="rgba(156,156,156,1)" d="m30 85.8 1.6 17.4 1.8-9.2 1.6.8 1.6-1.6h1.8l1.6-.8 1.8-.8h1.6l1.8-.8 1.6-1h3.4l1.6-.8h3.4l1.8.8 1.6 1.8 1.6 6.6L62 114l1.6 2.6 1.8-10.8L67 94l1.8-3.2 1.6-2.6 1.6-1.6 1.8 3.2 1.6 3.4 1.8-2.4 1.6-2.6 1.8-.8 1.6.8 1.6 4.2 1.8 8.4 1.6 13.2 1.8 5.8 1.6-6.6 1.8-15L94 84.8l1.6-1.6h1.8l1.6 1.6 1.8 3.4 1.6.8 1.8-5 1.6-.8 1.6-.8 1.8-.8 1.6-.8 1.8-1h3.4l1.6 1h5l1.8-1 1.6-.8 1.8-1.6 1.6-1.6 1.8-1h1.6l1.6 1 1.8 1.6 1.6-1.6 1.8.8 1.6 2.4 1.8 3.4 1.6-.8 1.6-6.8 1.8-1.6h3.4l1.6-.8 1.8.8 1.6.8h5l1.8.8 1.6-.8h1.8l1.6-.8h1.6l1.8-.8 1.6-2.6 1.8 1 1.6 1.6 1.8-.8 1.6.8 1.6 22.4 1.8 11L185 99l1.8-21.6 1.6-5.8 1.8-2.6 1.6-.8 1.6-.8 1.8-.8h5l1.8-.8 1.6-1 1.6-.8 1.8-.8 1.6-.8 1.8-.8h3.4l1.6-1.8 1.6-.8h1.8l1.6.8 1.8 5 1.6 2.6 1.8-3.4 1.6-7.4 1.6-2.6 1.8 1.8 1.6.8 1.8 1.6 1.6 3.4h1.8L239 59l1.8-1.6 1.6-1.6L244 54l1.8-.8 1.6.8h3.4l1.8-.8h1.6l1.6-.8 1.8-.8 1.6-.8 1.8 1.6 1.6 10 1.8 1.6 1.6-4.2 1.6-4 1.8-1.8 1.6-1.6 1.8-2.6 1.6-1.6h3.4l1.6-.8h1.8l1.6-.8 1.8-.8 1.6-1.8 1.8-.8 1.6-1.6h5l1.8-.8 1.6-2.6 1.8.8 1.6 19.2 1.6 28.4 1.8 10.8 1.6-35.8 1.8-17.6 1.6-6.6 1.8-3.4 1.6-.8 1.6 4.2 1.8.8 1.6-.8 1.8 3.4 1.6 17.4 1.8 15.8 1.6 16.8 1.6 10.8 1.8-2.6 1.6-28.2 1.8-22.6 1.6-10.8 1.8-.8 1.6 1.6 1.6-9.2 1.8 1.8 1.6 3.2 1.8 6.8 1.6 5.8 1.8-11.8 1.6-2.4 1.8-1.6 1.6-1 1.6 1 1.8-1 1.6 1.8 1.8-1.8 1.6-1.6 1.8-.8h3.2l1.8-2.6 1.6-1.6 1.8-.8h1.6l1.8.8 1.6-3.4h1.6l1.8 3.4 1.6-5.8 1.8 2.4 1.6 8.4 1.8 9.2 1.6 1.6 1.6-20.8 1.8-1.6 1.6.8h3.4l1.8 3.4 1.6 15.8 1.6 39.2 1.8 23.2 1.6-10 1.8-20 1.6-6.6 1.8 5.8 1.6 14.2 1.6 11.6 1.8-13.2L416 44l1.8-25 1.6-9.2 1.8 6h1.6l1.6 29 1.8 29.2 1.6-1.6 1.8-40 1.6-12.6 1.8 11 1.6 18.2 1.6 8.4 1.8-11.6 1.6-23.4L441.4 9l1.6 8.4 1.8 19.2 1.6 17.4 1.6-7.4 1.8-34.2L451.4 0l1.8 2.4 1.6 1.6 1.8 15 1.6 51.8" data-layer="1" style="fill:none;stroke:#000;stroke-opacity:1" transform="translate(-5.449 21.24)"/></g></g><g style="fill:none;stroke:#000;stroke-opacity:1"><path fill="transparent" d="M50.031 30H480v120H50.031z" pointer-events="fill" style="fill:none;stroke:#000;stroke-opacity:1" transform="translate(-25.658 154.278)"/><g style="fill:none;stroke:#000;stroke-opacity:1"><g style="fill:none;stroke:#000;stroke-opacity:1"><g style="fill:none;stroke:#000;stroke-opacity:1"><path d="M38.429 0v-2m8.398 2v-2m8.398 2v-2m8.398 2v-2m8.397 2v-4m8.398 4v-2m8.398 2v-2m8.398 2v-2m8.398 2v-2M30.031 0v-6m92.376 6v-2m8.398 2v-2m8.398 2v-2m8.398 2v-2m8.398 2v-4m8.397 4v-2m8.398 2v-2m8.398 2v-2m8.398 2v-2m-75.58 2v-6m92.376 6v-2m8.397 2v-2m8.398 2v-2m8.398 2v-2m8.398 2v-4m8.398 4v-2m8.398 2v-2m8.397 2v-2m8.398 2v-2m-75.58 2v-6m92.376 6v-2m8.398 2v-2m8.398 2v-2m8.397 2v-2m8.398 2v-4m8.398 4v-2m8.398 2v-2m8.398 2v-2m8.398 2v-2m-75.581 2v-6m92.376 6v-2m8.398 2v-2m8.398 2v-2m8.398 2v-2m8.397 2v-4m8.398 4v-2m8.398 2v-2m8.398 2v-2m8.398 2v-2m-75.581 2v-6m92.376 6v-2m-8.397 2v-6" style="fill:none;stroke:#000;stroke-opacity:1" transform="translate(-5.658 304.278)"/><g style="fill:none;stroke:#000;stroke-opacity:1" text-anchor="middle"><text x="30.031" y="8" style="dominant-baseline:hanging;fill:none;stroke:#000;stroke-opacity:1" transform="translate(-5.658 304.278)">0</text><text x="114.01" y="8" style="dominant-baseline:hanging;fill:none;stroke:#000;stroke-opacity:1" transform="translate(-5.658 304.278)">50</text><text x="197.988" y="8" style="dominant-baseline:hanging;fill:none;stroke:#000;stroke-opacity:1" transform="translate(-5.658 304.278)">100</text><text x="281.966" y="8" style="dominant-baseline:hanging;fill:none;stroke:#000;stroke-opacity:1" transform="translate(-5.658 304.278)">150</text><text x="365.944" y="8" style="dominant-baseline:hanging;fill:none;stroke:#000;stroke-opacity:1" transform="translate(-5.658 304.278)">200</text><text x="449.923" y="8" style="dominant-baseline:hanging;fill:none;stroke:#000;stroke-opacity:1" transform="translate(-5.658 304.278)">250</text></g><path stroke-linecap="square" d="M30.031 0H460" display="block" shape-rendering="crispEdges" style="fill:none;stroke:#000;stroke-opacity:1" transform="translate(-5.658 304.278)"/></g><g style="fill:none;stroke:#000;stroke-opacity:1"><path d="M0 117.12h2m-2-9.6h2m-2-4.8h2m-2-4.8h2m-2 14.4h4m-4-19.2h2m-2-9.6h2m-2-4.8h2m-2-4.8h2m-2 14.4h6m-6-19.2h2m-2-9.6h2m-2-4.8h2m-2-4.8h2m-2 14.4h4m-4-19.2h2m-2-9.6h2m-2-4.8h2m-2-4.8h2m-2 14.4h6m-6-19.2h2m-2-9.6h2m-2-4.8h2m-2-4.8h2m-2 14.4h4" style="fill:none;stroke:#000;stroke-opacity:1" transform="translate(24.373 184.278)"/><g style="fill:none;stroke:#000;stroke-opacity:1" text-anchor="end"><text x="-5" y="88.32" style="dominant-baseline:central;fill:none;stroke:#000;stroke-opacity:1" transform="translate(24.373 184.278)">50</text><text x="-5" y="40.32" style="dominant-baseline:central;fill:none;stroke:#000;stroke-opacity:1" transform="translate(24.373 184.278)">100</text></g><path stroke-linecap="square" d="M0 120V0" display="block" shape-rendering="crispEdges" style="fill:none;stroke:#000;stroke-opacity:1" transform="translate(24.373 184.278)"/></g></g><path stroke="rgba(156,156,156,1)" d="m30 56.6 1.6-47.2L33.2 0 35 1.8l1.6 2 1.8 1H40l1.6.8 1.8 1 1.6-1h1.8l1.6 1 1.6 3.8 1.8 2 1.6-1 1.8-1 1.6-2.8 1.6-3.8 1.8 2.8 1.6 4.8 1.8 2 1.6 1 1.6 7.6 1.8 15.4 1.6 6.6L72 56.6 73.6 71l1.6 9.6L77 67l1.6-8.6 1.8 5.8L82 74.8l1.6 2 1.8-20.2 1.6-7.8 1.8-5.6 1.6-7.8 1.6-8.6L93.8 46l1.6 24 1.8-11.6 1.6-33.6 1.6-11.4 1.8-3h1.6l1.8 1h1.6l1.6-2h1.8l1.6 1 1.8 1h1.6l1.6-2 1.8 1h1.6l1.8 1 1.6 2 1.6 5.8 1.8-2 1.6-6.8 1.8-1.8 1.6 1.8 1.6-2.8h3.4l1.8 1 1.6.8h1.6l1.8 2 1.6 1 1.8 1h1.6l1.6-2 1.8-2 1.6 2 1.6 4.8 1.8 5.8 1.6 1 1.8-8.6 1.6-5 1.6 1 1.8 2 1.6 1 1.8-2h1.6l1.6-1 1.8 1 1.6 1 1.8 1 1.6 1 1.6.8h1.8l1.6-.8 1.8-1 1.6 2.8 1.6 18.2 1.8 28.8 1.6 24 1.8-45 1.6-22.2 1.6-.8 1.8 17.2 1.6 34.6 1.8 13.4 1.6-19.2 1.6-28.8 1.8-20.2 1.6 1 1.8-5.8 1.6 26 1.6 33.6 1.8 21 1.6-3.8 1.8 8.6 1.6-14.4 1.6-31.6 1.8-33.6 1.6 1 1.8 1 1.6-3 1.6-2.8 1.8-3h1.6l1.8 2 1.6-1 1.6-1 1.8 1 1.6 2 1.8 1.8 1.6 1h1.6l1.8 1 1.6 1 1.8 1 1.6-1 1.6-1 1.8 1h1.6l1.8 1 1.6 8.6 1.6 6.6h1.8l1.6-11.4 1.8-4.8 1.6 1.8 1.6 6.8 1.8 12.4 1.6 29.8 1.8 22 1.6-12.4 1.6-26.8 1.8-21.2 1.6 7.6 1.8-7.6 1.6 1 1.6 2.8 1.8 2 1.6 2.8 1.8-3.8 1.6-2.8 1.6-2 1.8 9.6 1.6 45.2 1.8 12.4 1.6-30.8 1.6-32.6 1.8-5.8 1.6 6.8 1.6-2.8 1.8 1 1.6.8 1.8-.8h1.6l1.6-1 1.8 1 1.6.8h3.4l1.6-.8 1.8.8 1.6 1 1.8 2.8 1.6 2 1.6 1h1.8l1.6 5.8 1.8 7.6 1.6-3.8 1.6-7.6 1.8-2 1.6-1 1.8-1h1.6l1.6 3 1.8 1 1.6.8 1.8 1h3.2l1.8 1 1.6 1 1.8.8 1.6 1 1.6-1 1.8-.8 1.6.8 1.8 1 1.6 2 1.6-2 1.8 6.8 1.6 10.6 1.8 3.8 1.6-16.4h1.6l1.8-1h1.6l1.8 2 1.6 2h11.8l1.6.8 1.8 1h5l1.6 1 1.8 2 1.6 1 1.6 23 1.8 22 1.6 2.8 1.8-23.8 1.6-25 1.6-1h1.8l1.6-1 1.8 1h3.2l1.8 2.8 1.6 12.6 1.8 21 1.6 8.6 1.6-4.8h1.8l1.6 4 1.8 3.8 1.6 1 1.6 4.8 1.8 5.6 1.6-35.4" data-layer="1" style="fill:none;stroke:#000;stroke-opacity:1" transform="translate(-5.658 184.278)"/></g></g><text xml:space="preserve" x="24.583" y="21.24" style="font-size:29.3333px;font-family:Avenir;-inkscape-font-specification:Avenir;fill:red;fill-opacity:1;stroke:red;stroke-width:.944882;stroke-opacity:1"><tspan x="24.583" y="21.24">Row</tspan></text><text xml:space="preserve" x="24.833" y="183.389" style="font-size:29.3333px;font-family:Avenir;-inkscape-font-specification:Avenir;fill:red;fill-opacity:1;stroke:red;stroke-width:.944882;stroke-opacity:1"><tspan x="24.833" y="183.389">Column</tspan></text></svg>