<?xml version="1.0" standalone="no"?><!DOCTYPE svg PUBLIC "-//W3C//DTD SVG 1.1//EN" "http://www.w3.org/Graphics/SVG/1.1/DTD/svg11.dtd"><svg xmlns:xlink="http://www.w3.org/1999/xlink" xmlns="http://www.w3.org/2000/svg" font-family="Myriad Pro, Helvetica, Arial" font-size="12" data-jsgraph-version="v2.2.34" tabindex="0" width="500" height="235"><defs><clipPath id="_clipplotcc6c676a-b7dd-4ab1-a36a-28806eec8a22" clipPathUnits="userSpaceOnUse"><rect y="0" x="43.375" width="416.625" height="180"/></clipPath><marker xmlns="" viewBox="0 0 10 10" id="arrowcc6c676a-b7dd-4ab1-a36a-28806eec8a22" refX="6" refY="5" markerUnits="strokeWidth" markerWidth="8" markerHeight="6" orient="auto"><path xmlns="http://www.w3.org/2000/svg" d="M 0 0 L 10 5 L 0 10 z"/></marker><marker viewBox="0 0 6 8" id="horionzalsplit_cc6c676a-b7dd-4ab1-a36a-28806eec8a22" refX="3" refY="4" markerUnits="strokeWidth" markerWidth="6" markerHeight="8"><line x1="0" y1="8" x2="6" y2="0" stroke="black"/></marker><marker viewBox="0 0 8 6" id="verticalsplit_cc6c676a-b7dd-4ab1-a36a-28806eec8a22" refX="4" refY="3" markerUnits="strokeWidth" markerWidth="8" markerHeight="6"><line x1="0" y1="0" x2="8" y2="6" stroke="black"/></marker><marker viewBox="0 0 10 10" id="verticallinecc6c676a-b7dd-4ab1-a36a-28806eec8a22" refX="0" refY="5" markerUnits="strokeWidth" markerWidth="20" markerHeight="10" orient="auto" stroke-width="1px"><path d="M 0 -10 L 0 10" stroke="black"/></marker></defs><g><rect pointer-events="fill" fill="transparent" y="30" x="63.375" width="416.625" height="180"/><text text-anchor="middle" y="20" x="250"/><g transform="translate(20, 30)"><g><g><g><path shape-rendering="crispEdges" stroke="#F0F0F0" stroke-width="1" stroke-opacity="undefined" clip-path="url(#_clipplotcc6c676a-b7dd-4ab1-a36a-28806eec8a22)" d=""/><path shape-rendering="crispEdges" stroke="#F0F0F0" stroke-width="1" stroke-opacity="undefined" clip-path="url(#_clipplotcc6c676a-b7dd-4ab1-a36a-28806eec8a22)" d=""/></g><g><path shape-rendering="crispEdges" stroke="#DADADA" stroke-width="1" stroke-opacity="undefined" clip-path="url(#_clipplotcc6c676a-b7dd-4ab1-a36a-28806eec8a22)" d=""/><path shape-rendering="crispEdges" stroke="#DADADA" stroke-width="1" stroke-opacity="undefined" clip-path="url(#_clipplotcc6c676a-b7dd-4ab1-a36a-28806eec8a22)" d=""/></g></g><g transform="translate(0 180)"><rect pointer-events="fill" fill="transparent"/><g><line y1="0" y2="-2" stroke="black" display="visible" x1="51.707499999999996" x2="51.707499999999996"/><line y1="0" y2="-2" stroke="black" display="visible" x1="60.04" x2="60.04"/><line y1="0" y2="-2" stroke="black" display="visible" x1="68.3725" x2="68.3725"/><line y1="0" y2="-2" stroke="black" display="visible" x1="76.705" x2="76.705"/><line y1="0" y2="-4" stroke="black" display="visible" x1="85.0375" x2="85.0375"/><line y1="0" y2="-2" stroke="black" display="visible" x1="93.37" x2="93.37"/><line y1="0" y2="-2" stroke="black" display="visible" x1="101.70249999999999" x2="101.70249999999999"/><line y1="0" y2="-2" stroke="black" display="visible" x1="110.035" x2="110.035"/><line y1="0" y2="-2" stroke="black" display="visible" x1="118.36749999999999" x2="118.36749999999999"/><line y1="0" y2="-6" stroke="black" display="visible" x1="43.375" x2="43.375"/><line y1="0" y2="-2" stroke="black" display="visible" x1="135.03250000000003" x2="135.03250000000003"/><line y1="0" y2="-2" stroke="black" display="visible" x1="143.365" x2="143.365"/><line y1="0" y2="-2" stroke="black" display="visible" x1="151.69750000000005" x2="151.69750000000005"/><line y1="0" y2="-2" stroke="black" display="visible" x1="160.03000000000003" x2="160.03000000000003"/><line y1="0" y2="-4" stroke="black" display="visible" x1="168.36250000000004" x2="168.36250000000004"/><line y1="0" y2="-2" stroke="black" display="visible" x1="176.69500000000005" x2="176.69500000000005"/><line y1="0" y2="-2" stroke="black" display="visible" x1="185.02750000000006" x2="185.02750000000006"/><line y1="0" y2="-2" stroke="black" display="visible" x1="193.36000000000007" x2="193.36000000000007"/><line y1="0" y2="-2" stroke="black" display="visible" x1="201.69250000000008" x2="201.69250000000008"/><line y1="0" y2="-6" stroke="black" display="visible" x1="126.7" x2="126.7"/><line y1="0" y2="-2" stroke="black" display="visible" x1="218.35750000000002" x2="218.35750000000002"/><line y1="0" y2="-2" stroke="black" display="visible" x1="226.69000000000003" x2="226.69000000000003"/><line y1="0" y2="-2" stroke="black" display="visible" x1="235.02250000000004" x2="235.02250000000004"/><line y1="0" y2="-2" stroke="black" display="visible" x1="243.35500000000005" x2="243.35500000000005"/><line y1="0" y2="-4" stroke="black" display="visible" x1="251.68750000000006" x2="251.68750000000006"/><line y1="0" y2="-2" stroke="black" display="visible" x1="260.0200000000001" x2="260.0200000000001"/><line y1="0" y2="-2" stroke="black" display="visible" x1="268.3525000000001" x2="268.3525000000001"/><line y1="0" y2="-2" stroke="black" display="visible" x1="276.68500000000006" x2="276.68500000000006"/><line y1="0" y2="-2" stroke="black" display="visible" x1="285.01750000000004" x2="285.01750000000004"/><line y1="0" y2="-6" stroke="black" display="visible" x1="210.025" x2="210.025"/><line y1="0" y2="-2" stroke="black" display="visible" x1="301.6825" x2="301.6825"/><line y1="0" y2="-2" stroke="black" display="visible" x1="310.015" x2="310.015"/><line y1="0" y2="-2" stroke="black" display="visible" x1="318.3475" x2="318.3475"/><line y1="0" y2="-2" stroke="black" display="visible" x1="326.68" x2="326.68"/><line y1="0" y2="-4" stroke="black" display="visible" x1="335.01250000000005" x2="335.01250000000005"/><line y1="0" y2="-2" stroke="black" display="visible" x1="343.345" x2="343.345"/><line y1="0" y2="-2" stroke="black" display="visible" x1="351.67750000000007" x2="351.67750000000007"/><line y1="0" y2="-2" stroke="black" display="visible" x1="360.01000000000005" x2="360.01000000000005"/><line y1="0" y2="-2" stroke="black" display="visible" x1="368.34250000000003" x2="368.34250000000003"/><line y1="0" y2="-6" stroke="black" display="visible" x1="293.35" x2="293.35"/><line y1="0" y2="-2" stroke="black" display="visible" x1="385.0075" x2="385.0075"/><line y1="0" y2="-2" stroke="black" display="visible" x1="393.3399999999999" x2="393.3399999999999"/><line y1="0" y2="-2" stroke="black" display="visible" x1="401.6724999999999" x2="401.6724999999999"/><line y1="0" y2="-2" stroke="black" display="visible" x1="410.0049999999999" x2="410.0049999999999"/><line y1="0" y2="-4" stroke="black" display="visible" x1="418.33749999999986" x2="418.33749999999986"/><line y1="0" y2="-2" stroke="black" display="visible" x1="426.66999999999985" x2="426.66999999999985"/><line y1="0" y2="-2" stroke="black" display="visible" x1="435.00249999999977" x2="435.00249999999977"/><line y1="0" y2="-2" stroke="black" display="visible" x1="443.33499999999975" x2="443.33499999999975"/><line y1="0" y2="-2" stroke="black" display="visible" x1="451.66749999999973" x2="451.66749999999973"/><line y1="0" y2="-6" stroke="black" display="visible" x1="376.675" x2="376.675"/><line y1="0" y2="-6" stroke="black" display="visible" x1="460" x2="460"/></g><g><text y="8" text-anchor="middle" display="visible" x="43.375" style="dominant-baseline: hanging;">0</text><text y="8" text-anchor="middle" display="visible" x="126.7" style="dominant-baseline: hanging;">2</text><text y="8" text-anchor="middle" display="visible" x="210.025" style="dominant-baseline: hanging;">4</text><text y="8" text-anchor="middle" display="visible" x="293.35" style="dominant-baseline: hanging;">6</text><text y="8" text-anchor="middle" display="visible" x="376.675" style="dominant-baseline: hanging;">8</text><text y="8" text-anchor="middle" display="visible" x="460" style="dominant-baseline: hanging;">10</text></g><line stroke="black" shape-rendering="crispEdges" stroke-linecap="square" display="block" x1="43.375" x2="460" y1="0" y2="0" marker-start="" marker-end=""/><text text-anchor="middle" fill="undefined" style="display: initial;" x="251.6875" y="22"><tspan style="dominant-baseline: hanging;"/><tspan display="none" style="dominant-baseline: hanging;"/><tspan dx="6" display="none" style="dominant-baseline: hanging;"/><tspan dy="-5" font-size="0.8em" display="none" style="dominant-baseline: hanging;"/></text><g/></g><g transform="translate( 43.375 0 )"><rect pointer-events="fill" fill="transparent"/><g><line x1="0" x2="2" stroke="black" display="visible" y1="172.13149151949642" y2="172.13149151949642"/><line x1="0" x2="2" stroke="black" display="visible" y1="164.26298303899284" y2="164.26298303899284"/><line x1="0" x2="2" stroke="black" display="visible" y1="156.39447455848926" y2="156.39447455848926"/><line x1="0" x2="2" stroke="black" display="visible" y1="148.52596607798566" y2="148.52596607798566"/><line x1="0" x2="4" stroke="black" display="visible" y1="140.65745759748208" y2="140.65745759748208"/><line x1="0" x2="2" stroke="black" display="visible" y1="132.7889491169785" y2="132.7889491169785"/><line x1="0" x2="2" stroke="black" display="visible" y1="124.92044063647491" y2="124.92044063647491"/><line x1="0" x2="2" stroke="black" display="visible" y1="117.05193215597131" y2="117.05193215597131"/><line x1="0" x2="2" stroke="black" display="visible" y1="109.18342367546774" y2="109.18342367546774"/><line x1="0" x2="6" stroke="black" display="visible" y1="180" y2="180"/><line x1="0" x2="2" stroke="black" display="visible" y1="93.44640671446058" y2="93.44640671446058"/><line x1="0" x2="2" stroke="black" display="visible" y1="85.577898233957" y2="85.577898233957"/><line x1="0" x2="2" stroke="black" display="visible" y1="77.70938975345341" y2="77.70938975345341"/><line x1="0" x2="2" stroke="black" display="visible" y1="69.84088127294982" y2="69.84088127294982"/><line x1="0" x2="4" stroke="black" display="visible" y1="61.97237279244622" y2="61.97237279244622"/><line x1="0" x2="2" stroke="black" display="visible" y1="54.103864311942644" y2="54.103864311942644"/><line x1="0" x2="2" stroke="black" display="visible" y1="46.23535583143908" y2="46.23535583143908"/><line x1="0" x2="2" stroke="black" display="visible" y1="38.36684735093547" y2="38.36684735093547"/><line x1="0" x2="2" stroke="black" display="visible" y1="30.498338870431894" y2="30.498338870431894"/><line x1="0" x2="6" stroke="black" display="visible" y1="101.31491519496416" y2="101.31491519496416"/><line x1="0" x2="2" stroke="black" display="visible" y1="14.761321909424709" y2="14.761321909424709"/><line x1="0" x2="2" stroke="black" display="visible" y1="6.8928134289211584" y2="6.8928134289211584"/><line x1="0" x2="2" stroke="black" display="none" y1="76.39121077130987" y2="76.39121077130987"/><line x1="0" x2="2" stroke="black" display="none" y1="71.88648080484509" y2="71.88648080484509"/><line x1="0" x2="4" stroke="black" display="none" y1="67.38175083838028" y2="67.38175083838028"/><line x1="0" x2="2" stroke="black" display="none" y1="62.877020871915505" y2="62.877020871915505"/><line x1="0" x2="2" stroke="black" display="none" y1="58.372290905450726" y2="58.372290905450726"/><line x1="0" x2="2" stroke="black" display="none" y1="53.86756093898593" y2="53.86756093898593"/><line x1="0" x2="2" stroke="black" display="none" y1="49.36283097252115" y2="49.36283097252115"/><line x1="0" x2="6" stroke="black" display="visible" y1="22.629830389928316" y2="22.629830389928316"/><line x1="0" x2="2" stroke="black" display="none" y1="40.353371039591565" y2="40.353371039591565"/><line x1="0" x2="2" stroke="black" display="none" y1="35.84864107312677" y2="35.84864107312677"/><line x1="0" x2="2" stroke="black" display="none" y1="31.343911106662006" y2="31.343911106662006"/><line x1="0" x2="2" stroke="black" display="none" y1="26.839181140197212" y2="26.839181140197212"/><line x1="0" x2="4" stroke="black" display="none" y1="22.33445117373242" y2="22.33445117373242"/><line x1="0" x2="2" stroke="black" display="none" y1="17.829721207267625" y2="17.829721207267625"/><line x1="0" x2="2" stroke="black" display="none" y1="13.32499124080283" y2="13.32499124080283"/><line x1="0" x2="2" stroke="black" display="none" y1="8.820261274338066" y2="8.820261274338066"/><line x1="0" x2="2" stroke="black" display="none" y1="4.315531307873272" y2="4.315531307873272"/><line x1="0" x2="6" stroke="black" display="none" y1="44.85810100605636" y2="44.85810100605636"/><line x1="0" x2="2" stroke="black" display="none" y1="10.267869373851909" y2="10.267869373851909"/><line x1="0" x2="2" stroke="black" display="none" y1="6.128061309799506" y2="6.128061309799506"/><line x1="0" x2="2" stroke="black" display="none" y1="1.988253245747103" y2="1.988253245747103"/><line x1="0" x2="2" stroke="black" display="none" y1="23.356331060376277" y2="23.356331060376277"/><line x1="0" x2="6" stroke="black" display="none" y1="14.407677437904283" y2="14.407677437904283"/><line x1="0" x2="4" stroke="black" display="none" y1="19.796247675384848" y2="19.796247675384848"/><line x1="0" x2="2" stroke="black" display="none" y1="16.23616429039339" y2="16.23616429039339"/><line x1="0" x2="2" stroke="black" display="none" y1="12.67608090540196" y2="12.67608090540196"/><line x1="0" x2="2" stroke="black" display="none" y1="9.115997520410502" y2="9.115997520410502"/><line x1="0" x2="2" stroke="black" display="none" y1="5.555914135419073" y2="5.555914135419073"/><line x1="0" x2="6" stroke="black" display="none" y1="1.995830750427615" y2="1.995830750427615"/></g><g><text x="-5" text-anchor="end" display="visible" y="180" style="dominant-baseline: central;">0</text><text x="-5" text-anchor="end" display="visible" y="101.31491519496416" style="dominant-baseline: central;">20000</text><text x="-5" text-anchor="end" display="visible" y="22.629830389928316" style="dominant-baseline: central;">40000</text><text x="-5" text-anchor="end" display="none" y="44.85810100605636" style="dominant-baseline: central;">30000</text><text x="-5" text-anchor="end" display="none" y="14.407677437904283" style="dominant-baseline: central;">40000</text><text x="-5" text-anchor="end" display="none" y="1.995830750427615" style="dominant-baseline: central;">10000</text></g><line stroke="black" shape-rendering="crispEdges" stroke-linecap="square" display="block" y1="180" y2="0" x1="0" x2="0" marker-start="" marker-end=""/><text text-anchor="middle" transform="translate(-43.375, 90) rotate(-90)" fill="undefined" dominant-baseline="auto"><tspan/><tspan display="none"/><tspan dx="6" display="none"/><tspan dy="-5" font-size="0.8em" display="none"/></text><g/></g></g><g><g data-layer="1"><g><g><g/><g><path stroke="rgba(1,1,255,1)" stroke-width="1" fill="none" d=""/><path stroke="rgba(1,1,255,1)" stroke-width="1" fill="none" d="M 44.2 179.8 L 85 108.60000000000001 L 126.60000000000001 30.200000000000003 L 168.20000000000002 0 L 210 70.4 L 251.60000000000002 179.20000000000002 L 293.2 177.8 L 335 178.8 L 376.6 179.4 L 418.20000000000005 177 "/></g><circle fill="black" r="3" display="none"/><g/><rect fill="white"/><text/><g clip-path="url(#_clipplotcc6c676a-b7dd-4ab1-a36a-28806eec8a22)" style="display: initial;"><ellipse fill="black" stroke="White" stroke-width="1" cx="376.675" cy="179.41773037244275" rx="3" ry="3"/></g></g></g><g><g clip-path="url(#_clipplotcc6c676a-b7dd-4ab1-a36a-28806eec8a22)"><rect data-label-i="0" display="initial"/><text data-label-i="0" display="initial"/></g><g clip-path="url(#_clipplotcc6c676a-b7dd-4ab1-a36a-28806eec8a22)"><rect data-label-i="0" display="initial"/><text data-label-i="0" display="initial"/></g><g clip-path="url(#_clipplotcc6c676a-b7dd-4ab1-a36a-28806eec8a22)"><rect data-label-i="0" display="initial"/><text data-label-i="0" display="initial"/></g><g clip-path="url(#_clipplotcc6c676a-b7dd-4ab1-a36a-28806eec8a22)"><rect data-label-i="0" display="initial"/><text data-label-i="0" display="initial"/></g></g></g></g><line stroke="black" shape-rendering="crispEdges" stroke-linecap="square" display="none"/><line stroke="black" shape-rendering="crispEdges" stroke-linecap="square" display="none"/><line stroke="black" shape-rendering="crispEdges" stroke-linecap="square" display="none"/><line stroke="black" shape-rendering="crispEdges" stroke-linecap="square" display="none"/></g><g><rect display="none" fill="rgba(171,12,12,0.2)" stroke="rgba(171,12,12,1)" shape-rendering="crispEdges" x="51" y="30" height="180" width="1" pointer-events="none"/></g></g></svg>